/* XPM */
static char *_e2947953c3449baffc4de92c6b51341[] = {
/* columns rows colors chars-per-pixel */
"64 64 31 1 ",
"  c #E1E1E1",
". c #E2E2E2",
"X c gray89",
"o c #E4E4E4",
"O c gray90",
"+ c #E6E6E6",
"@ c #E7E7E7",
"# c gray91",
"$ c #E9E9E9",
"% c #EAEAEA",
"& c gray92",
"* c #ECECEC",
"= c gray93",
"- c #EEEEEE",
"; c #EFEFEF",
": c gray94",
"> c #F1F1F1",
", c gray95",
"< c #F3F3F3",
"1 c #F4F4F4",
"2 c gray96",
"3 c #F6F6F6",
"4 c gray97",
"5 c #F8F8F8",
"6 c #F9F9F9",
"7 c gray98",
"8 c #FBFBFB",
"9 c gray99",
"0 c #FDFDFD",
"q c #FEFEFE",
"w c white",
/* pixels */
"0006600000660000006600000066600000666000060600000066600000660000",
"644,=,00604==600464==400066,,600604==400664==600004,,400604==400",
"64,%%,0066=@@,0066,@@,6064=%@=6006,@%,0066=@@40064%@%=6006=%%,00",
"0,%@%=4,0,%@%=,66,@@%=,40=@%==,66=@@%=466,@@%=440=@%==,46,@%==,6",
"64,4,,,,44=4,,,44,,4,,,,4,,4,,,,4,,,,4,,4,,44,,,4,,4,4,44,,,4,,,",
"44000644=600664==600664,%600664,=600606,=600664,=600444==600664,",
"4,406,==@46066,%@,0664=%%40066,%%,0044=@%,6064=%%40064=%%,006,=@",
"6==464%X%%,60,@X===66,%X=%=60,@X=%=60,@@==,66,%X,%=66,@@=%=00=@@",
"6,,44,,,4,,44,,,,,444,,,4,=444,,4,,44,,,4,,44,,44,,46,,4,,,44,,,",
"664,=600464,=400604,=400464==600466==400464,=400466=,400664,=400",
"06,@%,0064=@%,0006,@%,6066,@@,0066,@@,6066=@@,6066,@@,0064,@%,00",
"0=X%%=,40,@@%=,66,@@%=446,%@==,40=@@%=,40,@@%=,40=@@%=,40,@@%=,6",
"0,=44,,46,=44,,46,,4,4,46,=44,,,4,,44,,44,,44,,44,,,4,,444=44,,,",
"4400644,=600664,%600664,=406664,=400644,=400664,=400664==600664,",
",46064,@%,6064=%@,0666,@@40066,%@,0066,%@,0064,%@,0064=%@,0044=@",
"0=,66,%@=%,60,%X==,664%X=%,66,%X==,60,%X===66,%X===66,%X==,66,@@",
"64,,4,,44,,44,,4,,,444,,6,,44,,4,,,44,,44,,44,4,4,,444,,,,,44,=4",
"666==400666,,600664,=400666,=400664,,400466==400464,=400664,=460",
"64=X%,6066=@@,6006,@%,6066,%%,6066=%@,6066,@%,0066,@%,0064=@@,00",
"0=@@%=,60=@@%=,40,@@%=,66,@@%=,60,@@%=,40,%@%=,66=@@%=,40,@@%=,4",
"64=44,,464,444,46,=44,,44,,4,,,46,,,4,446,,,4,,,6,,4,,,46,=44,,,",
"460066,,=600664,=600666,=400644,%600664,=600664,=600664,=600644,",
",46064=%%,6064,%@,0064,%%40064,%%,0066=%@40066,%%,0064=%@,606,=%",
"6==66,@X=%,60,%X==,60,@X=%,60,@X==,60,%@==,66,@X=%,60,@X==,66,%X",
"6,,44,4,4,,46,,,4,,44,,,4,,44,,44=,44,,,4,=44,4,,,,44,,44,,44,,4",
"666,=400466==400666,,400466,,400404,,400666,=400464,,400664,=400",
"64=%%,6066=%@,6066,@@,0066,@@,0066,@@,0066=@%,6066=@@,6066,@@,60",
"0=@@%=,40=@@%=,40,@@%=,40=@@%=,40,@@%=,60,%@%=,66,@@%=,60=@@%=,6",
"0,,44,,,6,,44,,44,,44,,,64,44,,46,,444,46,,44,,46,,,4,,,6,,44,,4",
"4600644,=600644,=400644,=400664,=400664,=400644,=600664,=400664=",
",46064,%@,6064=%@,0064=@%,0064,%@,6064=%%,0064,%%,0064=%@,6064=%",
"6==66,%@==,664%X===664@X==,60,@X==,60,%X==,66,%X=%,66,%X,=,66,%X",
"6,,4,,44,,=44,,4,,,46,,,4,,44,,44,,44,,,,,,44,,44,,44,,44,,44=,,",
"664,=400666,=400466,,400666,,400664,,400606,,400464,,400664,=400",
"04=@%,0066=%%,6066=@@,6066,@@,6006,@%,6066,@@,6066=@%,0006,@%,60",
"0=@@%=,40,@@%%,46,@@%=,46,@@%=,60,@@%=,60=@@%=,60,@@%=,60=@@%=,4",
"0,=44,4,4,,,4,,46,,,4,,46,,44,,66,,44,,46,,44,,46,,44,,,6,,444,,",
"4600644,=400664,=400664,=600664,=600664,=400664,=400664,%400664,",
",40064,%@,0064=%%,0064=%@,0666,%%,6064=%%,0066=%%,6064,%@,0044=@",
"6,=66,@X=%,60,%X===66,%@==,60,@X==,60,%X=%,664@@==,604%X,=,66,@X",
"04,44,,44,,44,,44,,44,,4,,,44,,44,,44,,4,,444,,,4,,46,,44=,44,,,",
"664==406664,=400464,=406606,=400666==400666=,400464,,400664,=400",
"64=%@,0066,@@,6064,@@,6066,@@,6066,@@,6066,@@,6066=%@,6006=@%,00",
"0,@@%=460=@@%=,60,@@%=466,@@%%,60=@@%=,40,%@%=,40,@%%=,60,@@%=,4",
"0,=44,,46,,,4,,44,,,4,,44,,44,,,6,,44,,46,,44,,46,,,4,,46,,44,,4",
"4600644,=400664,=400644,=400644,=400664,=600664,=400664,%400664=",
"446064=%@,0064=%%,0064,%@,0064,%@,0064,%@46064,%%40066,%%,0064,%",
"6==66,%X==,66,@@=%=60,@X,==66,@X===66,%X==,664@X===60,@X,==66,@X",
"64,44,44,,,44,,,4,,44,,44,,44,,,4,,444,44,,46,,44,,44,,44,,44,44",
"666==600666==400464,=400466,,400466,,400664,,600464,,400666==406",
"64=%@,0066,@@,0064=@%,6066=%%,0066,@@,6066,@@,6064=%%,6066,@%,60",
"0%@@%=,40,@@%=,60=@@%%,60=@@%=,60,@@%=,60,@@%=,60,@@%=,66,%@%=,6",
"0,,44,,46,,4,4,46,,44,,46,,44,,44,,,4,,46,,44,4,6,,44,,44,,44,,,",
"4600644,=400664,=600644,=400664,=400664,=400664,=600664,=600644,",
",46064,@@,6064=%%,0064=%@,6064=%@,0064,%%,6066=%@,0064=%%,6064=%",
"6=,66,@X==,60,@X=%,66,@X,=,604%X=%,66,%X=%,664%X==,604%X=%,66,@X",
"6,=44,4,4=,44,,4,,=44,,44,=44,,44,,44,,,4,,44,4,4,=46,,44=,44,,4",
"066,=400664,=600666,=400664,,600604,=400604,=400466,,400464==400",
"04=%@=6064=@@40006=@%,6066=@%,6066,@%,0066,@@,0044,%%,6064,@@,60",
"6=@@%=460,@@%=,66,@@%=,40=@@%=,46,@@%=,66,@@%=,46,@@%=,40,@@%=46",
"0,=444,,6,=444,,4,=44,,,6,,,44,44,,44,,46,,44,,46,,,4,,,4,=44,,4",
"6600664=%600664,%400664,=400664=%400664,=40066,==400644,%400664,",
"440064=@%,0044=%@,6664=%%,0064,@%,6064=%%,6064=%%,0664,%%,0064,%",
"6=,66,%@==,66=@X,%,66,@X===66,@X,%,66=@@==,66,@@==,66,@X===66,%X"
};
