/* XPM */
static char *c46e758e8f1347a5e19a6730567e1428[] = {
/* columns rows colors chars-per-pixel */
"64 64 256 2 ",
"   c #B75B01",
".  c #AA5702",
"X  c #BC6502",
"o  c #B86705",
"O  c #B97601",
"+  c #AD6600",
"@  c #C75902",
"#  c #D45A02",
"$  c #E55711",
"%  c #C56401",
"&  c #C46D01",
"*  c #CB6C02",
"=  c #C86808",
"-  c #D36503",
";  c #D36C01",
":  c #DB6C02",
">  c #DA6907",
",  c #C37302",
"<  c #CB7402",
"1  c #C97A06",
"2  c #D47302",
"3  c #DB7403",
"4  c #D47B01",
"5  c #DB7B02",
"6  c #D8780B",
"7  c #DA7A13",
"8  c #CD6E15",
"9  c #E66A05",
"0  c #E37303",
"q  c #E37C03",
"w  c #EC7B03",
"e  c #E77909",
"r  c #F17D09",
"t  c #E77A14",
"y  c #F27A12",
"u  c #E96B0A",
"i  c #B78500",
"p  c #CB8300",
"a  c #C38A00",
"s  c #CB8C02",
"d  c #C88306",
"f  c #D58401",
"g  c #DC8401",
"h  c #D38B01",
"j  c #DC8A03",
"k  c #DA850A",
"l  c #CD9301",
"z  c #CA9803",
"x  c #D39301",
"c  c #DB9402",
"v  c #D39B01",
"b  c #DB9B01",
"n  c #D8950A",
"m  c #DB8817",
"M  c #DE9A13",
"N  c #E48403",
"B  c #E38B03",
"V  c #EB8B04",
"C  c #E3840A",
"Z  c #EB840B",
"A  c #E58B0B",
"S  c #EC8A0B",
"D  c #EB8503",
"F  c #F48C0B",
"G  c #F48707",
"H  c #E39302",
"J  c #EB9204",
"K  c #E49B02",
"L  c #EC9C02",
"P  c #EC930B",
"I  c #E59A0B",
"U  c #F39405",
"Y  c #F39B03",
"T  c #F3930B",
"R  c #F39B0B",
"E  c #FB970A",
"W  c #ED8B13",
"Q  c #E88613",
"!  c #F38C13",
"~  c #F28418",
"^  c #EA9615",
"/  c #F49C13",
"(  c #F89715",
")  c #C7A602",
"_  c #DCA401",
"`  c #D9A902",
"'  c #DDBB01",
"]  c #DAB605",
"[  c #DCB814",
"{  c #ECA402",
"}  c #ECAB02",
"|  c #EBA50C",
" . c #E7A807",
".. c #F3A403",
"X. c #F4AB03",
"o. c #F3A20B",
"O. c #FDA40C",
"+. c #F4AB0B",
"@. c #FAAB0B",
"#. c #FAA804",
"$. c #E3B302",
"%. c #EDB402",
"&. c #E2BB01",
"*. c #ECBC01",
"=. c #EAB80A",
"-. c #F3B403",
";. c #F4BB04",
":. c #F3B30B",
">. c #F5BC0B",
",. c #FBB809",
"<. c #EAAB14",
"1. c #F4A313",
"2. c #FCAD13",
"3. c #F9A818",
"4. c #E9BB15",
"5. c #FBB313",
"6. c #FEBA1C",
"7. c #F8B816",
"8. c #F6AA26",
"9. c #F9B922",
"0. c #F0AF2D",
"q. c #FC9E24",
"w. c #DCC802",
"e. c #DAC711",
"r. c #E4C302",
"t. c #EDC501",
"y. c #EBCB03",
"u. c #E9C80A",
"i. c #F3C403",
"p. c #F4C40B",
"a. c #FCC40D",
"s. c #FDCB0D",
"d. c #F9C904",
"f. c #EBD401",
"g. c #ECDB01",
"h. c #E9D607",
"j. c #F3D401",
"k. c #F3DC04",
"l. c #FCD30B",
"z. c #FCDC0C",
"x. c #F9D808",
"c. c #EAC815",
"v. c #FCC413",
"b. c #F5CC14",
"n. c #FCCB13",
"m. c #FDC31B",
"M. c #FCCB1A",
"N. c #F4C41A",
"B. c #EAD916",
"V. c #FCD413",
"C. c #FCDC15",
"Z. c #FDD41C",
"A. c #FEDC1A",
"S. c #F4D716",
"D. c #EDE705",
"F. c #F4E403",
"G. c #FBE504",
"H. c #F5EB04",
"J. c #F4E30B",
"K. c #FCE40C",
"L. c #FDEC0B",
"P. c #F9EB07",
"I. c #EDFD0C",
"U. c #EEF603",
"Y. c #FCF304",
"T. c #F4FC02",
"R. c #FAFC04",
"E. c #FDF40B",
"W. c #F3FD0B",
"Q. c #FBFD0C",
"!. c #F6F407",
"~. c #EDE618",
"^. c #FDE314",
"/. c #FDEC13",
"(. c #FDE31B",
"). c #FDEC1A",
"_. c #F5E716",
"`. c #ECFD16",
"'. c #FEF313",
"]. c #F4FE14",
"[. c #FDFD14",
"{. c #FEF31C",
"}. c #F4FD1B",
"|. c #FDFD1C",
" X c #F4F415",
".X c #FBC725",
"XX c #FED524",
"oX c #FCDA27",
"OX c #F9C63B",
"+X c #F5D333",
"@X c #FEEC23",
"#X c #FEE32B",
"$X c #FFED2B",
"%X c #F8E724",
"&X c #EDFC28",
"*X c #F6F423",
"=X c #FEF423",
"-X c #F5FC23",
";X c #FDFE23",
":X c #FEF52C",
">X c #F4FE2C",
",X c #FDFD2C",
"<X c #F3F32B",
"1X c #FCE836",
"2X c #FDF433",
"3X c #F5FE32",
"4X c #FEFD33",
"5X c #FEF43A",
"6X c #F4FD3C",
"7X c #FDFE3C",
"8X c #F5F338",
"9X c #EAF834",
"0X c #FCD246",
"qX c #FDFE44",
"wX c #F5FE4D",
"eX c #FDFE4C",
"rX c #F7F847",
"tX c #F6FD53",
"yX c #FDFE55",
"uX c #F5FD5C",
"iX c #FDFE5B",
"pX c #FDF653",
"aX c #F5F34F",
"sX c #F4FE64",
"dX c #FDFE63",
"fX c #FEFE6C",
"gX c #F5FA69",
"hX c #FDFD73",
"jX c #F4FD7C",
"kX c #FCFE7B",
"lX c #F6F675",
"zX c #EEF371",
"xX c #FCCF68",
"cX c #FCFE83",
"vX c #F8FC89",
"bX c #FEFF94",
"nX c #FDFD9D",
"mX c #F6F897",
"MX c #ECF78E",
"NX c #FFFEAC",
"BX c #F9FAA6",
"VX c #FFFEB4",
"CX c #FEFDBC",
"ZX c #FEFBC4",
"AX c #FDFCCD",
"SX c #FFFED3",
"DX c #FEFEDB",
"FX c #F7FFD8",
"GX c #FEFEE3",
"HX c #FEFEEB",
"JX c #F6FEE9",
"KX c #FCFEF4",
"LX c #F4FCFD",
"PX c #FDFCFD",
"IX c #F9F7F9",
"UX c #EBFFEB",
/* pixels */
"{.;X;X|.|.|.k.y.H.|.|.|.|.'.j.y.K.{.;X}.;X).i.;.J.|.].].|.'.f.f.'.|.;X}.}.[.P.P.|.4XqX6XqX;XW.].eXVXLXLXAXkX-XT.tXNXKXLXGXkXrX&X",
"{.-X>X>X3X,X X X;X|.;X-X;X|.'.F.|.].I.I.[.[.P.G.;X;X|.].[.[.H.D.[.;X>X>X>X;X].[.>XyXsXsXsXeX3X6XkXZXKXKXGXCXkXyXcXFXPXPXKXZXhXyX",
"[.|.|.;X}.|.].W.;X|.|.|.].[.Q.!.;X;X;X].[.[.W.U.|.|.;X;X}.,X}.&X;X;X,X4X=X,X;X;X7XyXuXtXeX7X7XyXbXGXLXKXGXAXBXmXZXPXPXIXJXIXvXrX",
"|.}.}.}.}.;X}.}.;X-X;X|.|.|.].W.{.;X;X}.|.|.W.].;X;X;X|.|.;X X].|.;X|.}.|.,X X|.7XyXsXtXeX7XqXfXVXKXPXLXKXDXBXvXVXKXPXIXPXPXnXuX",
"[.|.;X-X;X,X XP.[.[.Q.Q.|.[.P.H.|.-X`.`.}.|.J.^.:X4X-X}.|.|.D.k.[.|.`.&X&X,XU.D.,XtXgXsXuXrX>X6XcXAXPXHXDXVXjXuXbXSXLXKXKXVXkXwX",
").;X;X|.|.{.y.r.^.{.[.].;X_.u.i.z.{.[.E.[.K.*.-.J.|.|.|.|.J.' *.A.@X,X,X,X$XS.l.).qXyXeXqX;XH. XqXVXPXPXDXkX}.T.uXVXPXPXPXkX8X_.",
"C 2.v.d.d.#.3 > e ! E o.I 3 : 9 : C / o./ C % = 3 S ( ( ! u # $ 5 T @.,.{ L g V X.5.m.V.n.a.i.;.F.:XqXwXeX@Xg.g.).7XyXtXeX(.t.{ ",
"6 3.M.n.a.L * > @ - D G : - @   = - 6 0 9 : # @ - - 3 0 : : # # 9 e G G Z r 9 w U E :.:.7.+.} %.(.{.].].;XE.r.4.).[.W.R.[.%X-.A ",
"$.@X|.[.|.B.a = t ( X...#.S % % 3 W F G V Z ; % > ~ w 0 y e @ - t G G F F ! N N #.,.v.s.n.v.-.} 2X4X3X,X,X2Xw.' :X4X4X4X7X7Xu.L ",
"oX4X].W.[.;X` & q.3.X.X.2.3.6 * w ( F G F ! : = > e w w r y - - Q W U U ( / B c 5.7.>.i.p.>.-.-.2X4X>X,X4X4Xe.w.qXqXrX6X6X3Xh.%.",
"1X-XI.W.Q.|.] O / @.:.-.+.1.A 4 w F T U T ! 2 = > t r G w t : 3 y ! E E U T B J @.6.s.d.i.*.;.a.7X4X>X>X3X7X~.B.4X6XqX6XqXqXB.;.",
"1X2X].[.[.-X[ 1 R 5.:.-.| 3.B 4 w G E Y T P 5 * - e D w w e : > e G E E G G N V } ,.a.p.i.%.%.>.5X7X>X-X>X4Xh.B.4X4X6X5XqXeXS.:.",
".X,X].Q.[.*X) + ^ 8.X.} +.1.4 & Z S J V B 5 * @ 2 C q e Z ~ : : Q ! J J T ! g B 2.5.-.;.>.:.{ b 2X7X>X>X7X2Xw.' 7XrXrX6XrX7Xu.%.",
" .(.E.[./.u.i + m ^ o.{  .^ 1 = 7 Q A P N 6 -   > 7 5 3 e t ; ; t Z D D S W 3 3 R 1.+.@.2.o.V j oX5X,X-X,X@X` ] :X,X,X,X,X2X$.K ",
"> ( ,.a.} j   8   8 5 g < , X X o = 2 5 2 %   .   * 2 2 - 6 @ % > e w w w e - 0 q V T Y U D e e +.Z.).'.z.n.K  .l.^.[.'./.Z.I w ",
"2 O.,.l.>.J * 8   % > e * 8 o X = = * ; @ X . . o X * 2 * 7 ; @ * 6 5 q 0 e - - 0 D B N D w 0 y Y ;.K.'.x.a.L J v.^.].[.E.l.L w ",
"` $X|.|.;XB.O o 7 ^ R { <.M ,   8 t 6 * < 8     = 7 , < 7 7 = = 7 Q q 5 Z Q ; 0 Z F V V F ! 3 5 N.L.[.|.|.C.L j S.;XQ.[.|.%X` V ",
"V.|.R.T.[.=X` X ^ 3.{ } ,.3.4 & 6 q 5 5 5 6 o . & f g 5 N 5 & % 3 k q N Z Q ; ; S U V U E T 5 g oX[.T.I.].{.$. .$X;XI.[.|.;X&.B ",
"1X,XW.I.W.,X[ O R | =.>.@.3.A , ; 3 t Q 7 7 o o , 7 A Z q 3 < & 2 5 D S N D 5 5 B V J T F S f I oX|.R.I.I.|.` $.qX;X].|.;X;Xu.c ",
"0X4XI.I.].,X[ 1 R o.=.7.<.3.A 4 = 2 C Q 7 m = o = m Q Z e 2 * & 2 C S Z N e 3 5 B V T T T S f I oX[.W.W.W.|.$.=.2X;X].|.;X;Xr.c ",
"S.;XQ.R.|.:X) o ^ 9.#.-.p. .O % 5 6 q N Q m O   1 m A V P N * & 5 Q A Z ! ~ ; ; ! S V ( ( ! f f oX[.R.W.I.{.b b @X;XW.W.;X:X] h ",
"_ (.[.[.=XS.a & m 8.O.#.| n + . 6 m 4 < 4 m , o 1 m j f P k * 1 6 Q g f Z Q ; 6 W N B V S Q 3 4 7.L.[.|.[.A.K j Z.{.[.'.|.(._ 5 ",
"> <.i.s.>. .< t & 6 k k , O o o   = 2 p , 1 o o O k f h k d & = 2 k j h f 4 & > 5 g c H g g 3 7 K t.F.L.f.*.V V 7.^.Q.Q./.y.j 3 ",
"n b././.S.c.s * , k n A 5 ; . . 8 1 M <.x p , o p n | <.<.j < * k I | } b h * % 6 B I | H A 2 2 I y.k.{.D.*.K j .Xz.Q.[.'.u.H : ",
".X5X|.;X;X=X_ 4 P .Xu.d.v.<.O   m 7.i.l.i.=.1 = | a.x.z.l.4.1 , 1.v.z.x.t.<.4 & ^ 9.V.x.d.5.f 6 N.;XQ.Q.[.).` z #X;X[.[.[.@X_ f ",
"aX8X}.;X-X,Xe.a 7.V.g.D.J.b.a O <.oXk.L.^.V.) a 4.z.G.Y.P.b.v h 9.A.J.F.k.N.s 1 9.XXz.J.C.Z.v l #X;XQ.W.|.{.' v <X-X].].;X;X' v ",
"eX4X-X;X,X,XB.) a.s.k.U.H.A.b a 7.@XG.E.).C.` s N.^.G.Y.L.A.b b .XA.P.H.G.n.x c p.A.G.H.L.A.` v :X|.[.[.|.|.y.$.5X,XW.`.-X;Xr._ ",
"rX7X-X;X3XrXB.) v.C.Y.T.!.#X` z N.@XE.Q.'.A._ x .X).Y.R.E.#Xn x N.^.Y.H.Y.l.c H p.).Y.Y.E.C.$.b ,X{.Q.W.}.;Xw.] 2X;XW.I.|.;X&._ ",
"1XqX&X&X>X4X] a v.).Q.T.Q.{.) a c.{.R.R.Q.K.v a c.[.T.R.R.A.z a c./.Q.U.!.A.z a .X*XQ.T.Q.^.) l :X;XT.T.].,X) z 2X,XW.W.|.;X] s ",
"4.5X>X4X:X#X_ 4 +.$X|.Q.'._.z p .X(.T.W.'.V.x O 4.{.Q.Q.L.Z.s O 4.(.|.].L.XXh p 9.#X[.Q.[.V.v f oX;XQ.Q.|.:Xz d 1X=X[.Q.[.@Xv 1 ",
"c A. X{.^.p.h 5 H M.C.J.x.>.h 4 <.s.g.D.S.:.4 * ^ b.g.J.j.:.< , c p.J.J.f.=.p 4  .V.J.F.k.$.h f %.z.U.I.J.p.a d 6.(.E.E./.V.s , ",
"4.A./.'.).b._ ^ 4.M.z.P.J.a.L n +.A.J.~.A.=.c H 8.S.J.!.x.;.h h 0.Z._.).z.Z.K I p.C._.D.%Xc. .| a.K. X}.@Xv.K M =.).|.[._.V._ n ",
":XyXhXjXiX2XD.g.=X7XdXkXyX|.F.h.{.qXfXhXyX=Xg.f.{.3XqXyXeX2XJ.g.|.5XyXyX7X;XJ.^.;X4XeXeX4X{.H.F.|.5XyXyXqX|.H.G.[.,XeXyXeX,XD.F.",
"7XsXjXvXjXsX9X*X7XdXcXnXcXiX8X%X,XeXgXcXhXuX%X~.7XwXuXsXuXeX9X~.,XqXsXgXuXqX XD.7XeXgXsXyX7X*X[.,X7XyXtXeXqX,X=XeXeXyXuXtX6X-X X",
"fXcXvXjXgXfXaX3XqXdXjXkXhXfXrX`.iXhXjXvXjXfX8X<X4XyXfXhXsXeX,X*X7XeXuXgXsXyX>X|.4X7XyXyXyXeX6X6XyXyXsXuXuXeX>X;XqX6XqXeXtXrX3X}.",
"iXkXcXhXsXhXpX8XqXhXcXkXhXfXwX`.eXfXkXlXfXfXrX$X4XyXdXiXqX4X<X<X5XeXyXiXyXeX:X{.-X4XqXeXyXqX9X9XqXeXiXdXiXyX2X-XeXeXyXdXdXyX8X-X",
",XdXvXcXgXdX8XW.,XdXcXnXkXiX<X_.;XyXjXjXfXyX<XE.,XeXdXfXyXqX;X X;X7XwXuXwX7X}.E.4XqXyXdXyXqX].R.,XqXuXuXyX6X-X}.7XeXsXgXuX6X}.Q.",
"2XdXcXkXdXyX%XJ.*XqXdXhXyX:X^.S.%XpXhXhXyX2Xh.D.*X7XyXdXuX8X~.D.).4XeXyX6X:X~._.$X5XeXyXeX2X^.z.:XqXyXwX7X:XJ.J.'.4XwXwXqX,XJ.P.",
"Y 6.XXZ.m.5.V w F O.5.6.X.Y D r V @.m..X2.I 5 e W 3.v.s.;.{ N N ^ 7.M.M.-.{ g N { %.d.f.u. .c g #.s.^.~.V.7.H N a.A.=X).@Xm.B 6 ",
"I n.)./.^.>.g 0 0 U X.} K V 0 u y G U U F G 9 $ t ! Y o.J e 9 # y F Y ..T ! 0 9 Z F O.E E G : - I p.J.D.h.| 5 ; 3.(.Q.T.E.v.f ; ",
".X:X|.;X;X%Xv 5 P 9.V.d.a.2.q 0 G ( Y Y O.T : : G ( E L E ! ; : Q ( o.L O.( 2 3 F 3.....O.E 3 * N.{.[.|.;XS.f 2 oX,X[.Q.[.^.v < ",
"oX3X}.I.-X4X[ d 6.b.x.k.j.a.K 4 Y #.X.-...Y 5 ; W 1.+.X.2./ 4 2 ! 3.....O./ 3 3 / o.} X.@.R f 4 oX;XW.].|. X_ s 1X;XI.[.|.=X] 4 ",
"5X4X|.`.;X,Xc.x 7.p.k.G.j.v.| f J R +.,.X.R N ; Z ( @.#.R T 5 3 S o.#.X.{ U 4 3 V o.+.,.#.U j j +X|.I.T.W.|.] _ 5X,X].].|.;Xu.c ",
"1X:X|.}.,X,Xc.c 6.n.l.j.d.v.I j S / @.@.#.E 5 : ~ / 2.@.o.T q 5 Q R X.X.{ J 5 5 B o.@.@.O.U g A oX;XR.R.R.|.&.` 5X,XI.I.].;Xr.x ",
"1X4X}.-X;X4X] s 7.V.j.j.l.>.h , I 2.:.-.#.o.4 4 ^ 8.+.} 5.1.5 4 ( 3.X.} +./ 3 2 ^ 3.+...2.3.f h oX}.U.T.W.{.` a 1X,XI.].|.;X] h ",
".X:X|.;X=X$X .j ( 5.s.d.s.5.4 < Z / | { +./ 3 3 W 1.} } +.1.4 3 ! 3...{ o.P ; - A 1.| { O./ < < .X|.Q.|.[.).b j #X,XI.].;X{.` j ",
"Y y.F. X^.p.B w r T {  .K B : u y ! T | o.( 0 > w R #.X...T 5 3 Z R ..X.L N - : C T #.#.Y G ; - | x.'.'.P.j.H N M.=XW.W.'.^.c 5 ",
"6.^.[.|.L.V.o.3 G J } &.} J : # G T @.-.} Y q : ^ o.:.,.} o.C 2 ( T X.,.Y V 3 - ! I +.,...S 5 * 3.C.|.|.Q.h.c H .X).W.[.'.(.I 9 ",
"XX:X,X3X4X:Xp.f 5.s.^._.A.7.B : ( 6.d.t.p.5.g : q.9.*.r.n.5.g 4 ( #.;.d.-.R 5 > 3.:.d.d.;.6.B 1 oX2X|.|.;X=X' c $X,X|.|.,X=X$.H ",
"#X7X&X>X>X,Xc._ .XA.W.T.T.k._ k 5.s.k.J.z.b.b f 2.v.l.x.Z.9.B 4 6.v.d.j.i.<.f < 8.p.d.z.h.b.c s 1X4X|.].|.|.w.] 5X3X].`.|.}.w._ ",
":X4X&X3X4X,Xk.=.S.'.E.W.Q.'.*.b m.l.Y.!.F.d. .j 2.a.x.G.d.,.V 5 @.a.j.j.d.>.c f 7.V.P.L.J.b.b { :X;XW.].[.[.f.t.4X;X}.,X4X2XB.p.",
"2X4X>X>X4X4XS.4.#X;X[.[.W.|.i._ n.G.Y.R.H.x.} j 9.A.K.G.z.a.K f ,.s.z.J.l.7.H j m.^.Y.Y.!.V.K  .5X,XW.Q.[.|.h.p.4X;X|.;X,X4X~..X",
"$X4X3X6XqX7Xc.` #X;XW.W.W.|.u.z j.E.!.U.'.^.$.h n.(.J.D.).b.z i m.C.F.D.^.N.v p n.).H.U. X%Xv x 2X-X`.}.-X;Xw.] 5X>X-X,X,X-Xh.r.",
"K.[.|.,X:X{.&.x oX{.Q.W.Q.'.&.l XX{.Y.H.E.^._ d m.A.G.F.^.M.s 8 .XA.D.F.L.XXM d XX).!.W.|.#Xb n @X|.[.[.|.;Xr._ :X|.[.|.;X|.f.] ",
"z.E.R.[.[.K.&.b b.(.E.!.!.F.*.K M.A.^.F.P.j._ f 5.M.z.j.x.a.h 1 7.Z.h.D.C.N.x f 9.A.H.H.F.V.c j XX/.R.Q.Y.P.&.{ #X=XQ.R.[.'.r.| ",
"Y.[.3XyXyX<Xh.d.C.=X4X6X6X(.j.i.l.(.5XeX$XS.i.,.n.#XrX5X1XZ.&.] M.#X:X<X1XXX$.-.C.).*X5XrX1X*.i.(.*X7XyXrX1Xy.d.).,X7XeXrX<Xf.d.",
"7XNXIXLXGXcX].W.eXNXKXLXJXlX9XI.;XcXFXPXGXkX_.!.4XnXGXKXGXgX~.U.3XnXPXPXAXiXQ.Y.qXVXHXPXDXkXI.T.eXCXPXPXSXkX XY.qXNXPXPXDXkX>X].",
"kXGXIXLXPXDXcXyXdXZXPXIXHXCXgX8XbXGXPXLXKXCXlXaXhXZXPXIXKXZXgXrXhXCXIXLXKXVXgXtXgXSXPXKXKXZXlXeXkXGXPXJXKXSXlXeXkXAXPXKXHXAXlXrX",
"nXHXIXIXKXSXmXcXnXDXLXKXHXIXmXsXbXGXLXUXJXHXBXlXNXGXIXLXFXHXMXuXnXDXPXLXIXDXBXMXBXKXLXLXKXAXMXcXnXHXLXLXKXSXmXvXBXGXPXLXPXDXBXjX",
"VXKXLXLXPXGXmXjXBXHXPXPXKXIXmXgXnXJXLXUXJXFXBXlXbXSXLXIXFXGXMXzXbXGXPXLXPXSXmXlXnXGXIXIXPXDXMXvXVXGXLXLXPXSXmXcXCXKXPXPXPXGXmXkX",
"cXDXPXLXHXAXMXuXuXZXPXPXKXBXhXtXnXHXPXPXKXVXhXpXhXSXPXPXPXCXlXaXfXZXLXPXPXAXgX1XbXDXPXKXHXSXlXqXcXAXLXLXJXCXlXtXhXSXPXKXDXCXjXtX",
"7XnXKXPXDXcX;XR.eXNXPXLXPXfX-X!.-XkXSXIXHXvX}.R.qXnXGXKXIXfX XT.>XBXPXPXCXgX].R.6XmXHXPXAXcX~.T.yXNXPXPXDXkX*XY.7XVXPXPXDXkX|.T.",
"H. X4XuXpX<Xf.r.z.$X7XrXaXoX-.{ :..XOXOX0.<.H H 1.0.OX0.0...U D P 8.OX.X8.^ U E #.2.0XxXOXh.' [ k./.4XyXwX$Xj.d._.;X6XuXuX%Xf.r.",
"A.{.|.;X;X^.*.} l./.Q.[.=X.XY y F 3.a.;.X.L : 9 u w 2.o.U 9 9 $ u w E Y B w 9 9 ~ U ,.a.} I D G v.#X;X;X'.A. .I oX$X|.].,X_.t. ."
};
