/* XPM */
static char *_860ef298f9041efd21a4473a0b4c4b6[] = {
/* columns rows colors chars-per-pixel */
"64 64 95 2 ",
"   c #14474A",
".  c #154A4C",
"X  c #184C4F",
"o  c #174E50",
"O  c #184E51",
"+  c #175152",
"@  c #195355",
"#  c #1B5659",
"$  c #1D5A5D",
"%  c #205C5E",
"&  c #1E5E61",
"*  c #205E62",
"=  c #1F6164",
"-  c #1F6568",
";  c #216265",
":  c #226569",
">  c #236A6D",
",  c #256D72",
"<  c #267275",
"1  c #287376",
"2  c #277579",
"3  c #29767A",
"4  c #2A797D",
"5  c #2C7D82",
"6  c #2E8285",
"7  c #2E8589",
"8  c #308387",
"9  c #31868A",
"0  c #338A8D",
"q  c #358E91",
"w  c #369296",
"e  c #389296",
"r  c #379599",
"t  c #39959A",
"y  c #37989B",
"u  c #3B9A9D",
"i  c #3D9DA1",
"p  c #3EA1A4",
"a  c #3FA6AA",
"s  c #409FA4",
"d  c #41A3A5",
"f  c #42A6A9",
"g  c #44AAAD",
"h  c #45AEB1",
"j  c #48AEB2",
"k  c #46B2B4",
"l  c #49B2B5",
"z  c #47B6B9",
"x  c #4AB6B9",
"c  c #47B8BB",
"v  c #4CBABC",
"b  c #50BCBE",
"n  c #4DBEC1",
"m  c #50BEC0",
"M  c #4EC2C4",
"N  c #4EC6C9",
"B  c #4FCACC",
"V  c #51C3C5",
"C  c #52C7C9",
"Z  c #54CBCC",
"A  c #58CCCE",
"S  c #55CFD0",
"D  c #59CFD1",
"F  c #56D2D4",
"G  c #5AD3D5",
"H  c #57D6D9",
"J  c #5CD6D9",
"K  c #55D8D9",
"L  c #5CDBDC",
"P  c #61DCDE",
"I  c #5CDFE0",
"U  c #62DFE0",
"Y  c #5EE2E3",
"T  c #5FE7E8",
"R  c #5EE8E9",
"E  c #63E3E4",
"W  c #68E4E4",
"Q  c #67E8E7",
"!  c #63E7E8",
"~  c #68E6E8",
"^  c #64EBEC",
"/  c #69ECED",
"(  c #65EFF0",
")  c #6AEFF0",
"_  c #66F1F2",
"`  c #6BF4F4",
"'  c #6EF8F7",
"]  c #6CF7F8",
"[  c #6EF9FA",
"{  c #71F6F6",
"}  c #70F8F7",
"|  c #72F7F8",
" . c #73FCFC",
".. c #7BFEFE",
"X. c #81FEFE",
/* pixels */
": ; & $ $ $ $ & * : 4 5 3 v Z y < w B T S u , = $ # o X     @ y  .d # < [ f @   X > ^ J % o > { { < .       + i C n l p e 7 3 , ",
"/ W L G V x g u 0 5 4 u g , 4 M H u < 2 a L ^ L V g 0 < ; $ ; l  .e @ < ] l #     ; U ! ; o , ` { 3 .       o y  ......... .| ` ",
"| | | |  . . .[ [ ] _ I H K 9 > 6 B L p < > 9 M ! ' [ ] W G v P  .6 + < ` V #     % J ` < o < `  .4 X       . > E ..X.X... .| | ",
"5 4 5 6 5 6 7 7 9 9 4 ; ; g ^ k > ; 0 H Y a , : > 6 f A ^  . . .| < X > ` C $     # Z  .8 @ 1 {  .5 X         # z ..X.X...a 5 5 ",
"o . X o o o o o o O @ @ # $ w ! J 6 & ; r L E g > $ # $ - 6 f A F = o > ) G $     # b  .i # 3  . .6 o         X 3 ) X.X...D ; O ",
".           . . O # > i f * # < H ` g - $ - p T ^ x < $ + + # # # o . > / P %     @ g  .b $ 4 }  .9 X         . $ C ..X.X.| q O ",
".         X $ < e x Q  . .k & # ; x ] G 4 $ # > g ^ ^ x 4 $ # X .     > / E =     O u  .A * 6  ...q +           O 9 { ..X...D & ",
"+         + M `  ... .U L  .g $ + $ y ) ` f ; + # < x ) ] F p > $ O X ; ! ^ : X   X 9  .P ; 4  ...p : $ + X       # 5 J ....| q ",
";         + t  ...W u > 3 E } g $ X # 4 P [ G 4 # O $ 3 V `  ./ V 9 $ $ g ` 6 o   X 4 ' U ; , `  .} Y C i 4 ; # @ o @ , P ....G ",
"q +         ; F ..G : X + 5 / | d % X + > V  ./ d = X X $ 5 C `  . .p # = J H ; O + < ` W & # 5 g V P _ ' ` T C i 3 # # 1 E .. .",
"G & .       + 5 ` } e +   # e ` | d % . X & p ` | A 4 # . O $ 3 v  .v # + 5 _ g > 5 v  .C % o + # % & > 7 a M L ( _ i $ # 5 ~ ..",
"| e #       . $ b ..J ; . . * j  .{ s # . . # 6 E  .~ i & o . O > Q V # . # h ` U }  .W 3 ; 4 < > ; & % % % = - , g _ i $ # 9 ) ",
"` / 5 +       . 5 |  .u # # < C  .X.{ u # . . + , C  . .C < @ X ; L A $   X ; P .. ./ 0 > b [ ' ^ ! L A n h u 7 > ; f _ y $ $ 0 ",
"u [ E < +     . & D ..W 4 d ! ..X.X.X.{ w +     X = g | ..^ e # $ G L $     @ 5 G v 6 : k ` x k v V Z F P I ! ) Y 4 : f ) t # % ",
"$ f ' J > X     O e  ...~ ....X.X.X...[ n @       X $ 0 W ..` < $ V Y $       o # $ ; p ] f ; # # # $ $ & = ; 3 F Y 4 ; g ( e $ ",
"% $ l | C = X   X ; E ..X.X.X.X.X...` h = X           + 3 J  .e $ k T = .       X $ l ` v $ X   o # # # # # # @ > C T 6 - g ^ q ",
"0 $ & b [ v & .   # g ..X.X.X.X. .L 7 # .               + q | x = i _ - .       # p [ A - X X $ e l v b V C j ; # = V E 7 : g _ ",
"^ 9 $ - C [ g $ . . > Q ..X...` z : O .                 @ r  .G = 9 _ - X     o 3 ` L > o o = x '  . .' ` `  .Z > # ; v R 9 : g ",
"k R 8 $ > D ' u # . @ 9 W J x 7 # .         .   . . O $ 5 C  .U $ 2 _ < X   . & A ^ 4 + + > V  .` k 9 4 , 3 F  .J < # = k ^ 0 > ",
"> h ! 6 $ , L _ 0 # . + & $ @ o . .           . @ * 9 Z `  .^ d # > ^ 4 X   # p ] e # + < G  .W 0 # o X X + ; v ' U 4 $ & g ^ q ",
"e > h T 5 $ 2 E ^ 4 + . .               . o @ - u J | | L p - # $ , R 6 X o < ^ k $ # 4 Y  .Z > @         . X $ g ` ^ 0 $ & a ^ ",
"^ y > h Y 4 $ 4 ^ Y 1 +               O $ , h E  .` Z 0 ; $ * , g Y G : X & Z F ; $ 8 ^ ] f & X . + ; < $ o .   $ e / ` y $ & u ",
"t ! u > k I 4 % 9 / J : o .   . . + & 5 m /  .^ x 4 ; $ ; 8 N Y N 0 > $ $ u Y < & 9 ^ Q 9 # X + ; e P | G 3 #   . # 8 W ` a & $ ",
"% q T p > k I 1 & w ` Z > & ; ; > w D ] [ L p , & $ > i H L h 4 < p F x r T 0 = q ) G < # @ $ 0 J  .......Q q $ . . + 1 L [ x : ",
"> $ 9 ! a > k K 1 = u ' Y U W Q / | ` Z 0 ; = = 4 c I Z w < 6 v H M c ^ ` g - w ^ v > # $ 6 Z | { P P  .X...| j * o . o > Z [ C ",
"F , % 5 Y g > k K 1 ; f '  . . .` v 4 $ @ # 0 G Y k 4 > i F F i : # $ = < - y ^ p & # < n ] ` V 5 ; ; s ~ .... .Z , O   o * l [ ",
"' P > @ 5 Y g : z L > $ 4 0 q q 3 $ X   . 4 ' / 5 # # f [ M > + X   . @ # ; T k : + - E  .L 9 & + X # ; 9 L ..X...I - . . o & g ",
" .L : + > L Z * 5 _ 8 o . o o o . .     X 4 }  .6 + X 6 [ W > X . o = y x 9 0 Y p $ # r / | b , ; < u V ^  ... .W p #     O : v ",
"G , @ * n ^ 3 ; M Y - .                 . > / ..f # . = J  .g $ # 5 F H h M q 6 I k & $ 5 L  .U J /  .[ W Z g 9 : @ . . # 3 G  .",
": + $ h ` e & 6 ' f @                     * U ..A $   @ u  .~ 5 g ^ z , 5 5 M q 4 L M ; $ , V ^ J b u 4 = $ @ o . . o % w ~ [ C ",
"O # u ' z % = G ^ > o       .             $ G ..W ; X . > W  .^ _ i , k Y S 6 N w 2 G S > # $ ; & $ # + O + o o # & 3 v ] [ j & ",
"# 0 ` G : # w [ x # .               . X . # n ..} 5 X   @ g  .W 8 ; h S , 5 N 5 N w < Z L 3 = = ; : > < 4 6 0 7 j J ` ] U t & o ",
"6 ^ Q 3 + ; P ` 6 # .           + $ : 4 > ; g ....d @   . > x < ; f I 1 ; > 0 B 5 B w , M R L I T ( _ ] |  . . .[ L k 5 = $ # $ ",
"_ W 0 @ . 3 ^  .P w = O X o $ : q C ^ } ~ L G X...C #     . @ & p ^ 6 > C E 4 w N 4 Z r > q y y y e r w y v L V 7 ; $ $ = < f F ",
"9 : % O . @ < x / [ G 0 > 9 v ^ [ / G J `  . .....W =     . # u ( y ; p ^ M L 3 r N 5 Z a 6 3 > : ; $ # + # $ # $ $ 4 g L ^ L c ",
"> 6 f 4 ; # # $ , k ^ ` ^ [ ` D d 1 & ; , e b U ` ` < . . # t _ g = < E u > v F < p M 4 k N F K L K p & + . # ; 9 S _ L h 4 > ; ",
"! ]  .[ L d , $ # $ , g Z d 2 * $ # @ O X + # = 2 w :   + 0 ` N = $ M L = + - F M - g B p 4 < > 4 C [ A 3 > u L _ C 9 ; - > q n ",
"k 7 f G ]  ./ C q ; $ # $ $ $ ; 5 l x 5 = # X . X X X X > ! G - # 0 ] w # + # > I k > 9 v L L a * ; v [ ^ ! ^ v 4 = - 5 M ^ _ L ",
"# + # $ < f J ` [ Y h 4 : 6 x E ] ] [ ' P g 4 $ @ o   @ a ^ 3 # : L G ; $ k < # 4 ^ g , = - f ` 0 $ & f U g > ; ; 9 Z ` Y a , & ",
"        X @ & 3 f G ` ] ^ ] ^ Z u 4 u G `  .` F i > # # V v % # g ] 0 # 8 [ G : # w ^ Q y # ; L E > O # $ ; > e G ] L i ; # X   ",
"              X @ * 3 f v y > % + X @ % 5 v Q  . .^ h * x M $ < ) F = # v  . .v $ # < J I ; @ 0 ` M # + : u L } J w = @ . .     ",
"                .   X + @ @ O X + + .   o # > i L ] U > g B * y ] 9 # : W Z L [ t # # h ' 4 + ; F E = > L ' F 0 = @ .           ",
"                          + ; 0 l 8 % + .   . + = u ^ , u F = u ^ > @ 0 [ y 6 / ^ ; + e [ f # ; I f - k ` w % + .               ",
"                        @ 4 E  . . .A 8 $ O   . X < ( 4 0 L ; u T = $ C ^ > ; m ^ : + 3 ] g $ w ^ > < ^ x # .                   ",
"        X X + + O @ # $ 3 E  ...` ....{ V 4 $ .   ; Y w 6 L : u Y = ; Y A $ $ Z ^ ; # w _ 3 = S k ; x ^ > .                     ",
"      @ - 7 q u p h l n W ..| h 9 G ......{ b 1 + $ Z g < L > u L ; > / x $ * L L * $ Z S ; 6 T < 3 ^ d # .                     ",
". . # 6 P  . .............{ u $ @ ; x | ..X...Q > $ z n < K > i L & < ` I > , ^ v $ > ^ t ; M c > c Y ; .     .                 ",
"X & i ) ..X.X......... .~ 0 # . . o % t ^ ......t $ r G < K > i F $ = G  .v t [ w $ i ! > 1 T 4 4 ) e #                         ",
"> n  ...X... .J V l d e , @           # 4 F  ...V & 3 I < F < p F & # 4 / | L / , & S c ; k M : M H =                         + ",
"L ..X.X.X.) d ; % @ + O X               + ; k ' W : - L < Z 4 0 ` w # # d  ...P & ; Y i : H 0 4 ^ 0 @                     . # 4 ",
"..X.....L 5 # X         . o @ .           X & v ' 6 = H 7 N w ; v ^ < @ * Z  .l # = ! u ; L 0 5 ) 6 $ +                 X $ u / ",
"X.X.| v > +         . @ ; 0 h : +           o 4 ] g ; v u r K , > L S ; @ , S < O , ^ u = F y < _ / V 6 ; @ .           # k ' X.",
"X.) s * X         # < l J }  .G , +         . & L G ; t H < k N : 5 ^ h # @ # o # u [ w = Z a ; M `  .[ P p > $ +       & N | ..",
" .{ l : # .     # u ~  .` G )  .P 2 @       . @ g _ < = v M < Z g - i _ 0 +   . & L ^ , = Z k # $ 3 g L '  .^ n 6 & @ X o $ 9 G ",
"q P [ I q $ +   : E ..P 8 : 9 / ..W 5 @       O < / Z > > F a < K q : M T , O @ t [ f $ , ^ q o   o # = 5 x W  .] G u > $ + # * ",
"# * t P ] C 4 $ # 4 P / q ; : i } ..! 6 .       # t ] v ; < I w 0 L 2 > L C ; : J I : # f L ; # # @ o . O # ; 0 V ^ [ ^ x 4 $ # ",
"> # $ ; p Y ( k > $ > M ^ n Z ` .. .E i O         * g ` d ; 9 L 5 p F > 6 ^ g h ] w # ; I i ; h D g 5 ; $ + O @ $ > r A _ ] S y ",
"T k 4 = $ > a R Y w ; - g Y I J v 9 - + .         . ; C ` w $ u H < x c ; p ] [ G & # r Y , 4 ` .. .| Q C i 3 ; # # # $ < p G ` ",
"h L ( Z w ; - < h ^ B 4 ; : * * $ O . .   . . . X X * Z  .V # $ M N , F u > v L 3 # 2 ^ j ; m ..) P ~ |  . .' P v e , = $ $ = 4 ",
"; ; 6 x Y Y a < : < k Y c t 4 > = $ $ $ $ * ; > , 3 e |  .q + # k T ; 6 ! > $ $ @ * G ^ < & E ..P > : 4 d V P )  . .` G l 9 > = ",
"g 6 > : - q N Y N 0 , 5 g Z I R Y H V A G P W ` | `  ...Q - . $ Z J = 4 _ 2 X   o q ] t # # m  .D * . X # # & , 0 g S E ] [ ^ G ",
") _ ! C p 4 - < y B S a u 2 > 2 r x G ^ ` ` ` ` | | | [ x # . = I S = 2 ] 6 X   O 9  .q O O < ) U * .         . o # $ ; 2 u v G ",
": 6 d C Y R I n r 2 4 i p M N u < ; ; > > > < , < < 3 1 & . X > ) M $ 4 ] w +   o 5 [ g @ . : / ` > .             .   . X + # & ",
"+ O # # = , 0 k S Y K N B q 6 z K S y > $ # + o . X X . .   X 4 ' x $ < ] u +   o , ` m # o : ` ` , .         o # # @ + o o X X "
};
