/* XPM */
static char *_970f1c8794e4bd7aec18f8711121d58[] = {
/* columns rows colors chars-per-pixel */
"64 64 211 2 ",
"   c #010202",
".  c #090103",
"X  c #010903",
"o  c #02020A",
"O  c #0A0109",
"+  c #010C0C",
"@  c #020D13",
"#  c #0B0813",
"$  c #030F1B",
"%  c #060411",
"&  c #011313",
"*  c #001D15",
"=  c #02141C",
"-  c #08111A",
";  c #011C1C",
":  c #0B1D1D",
">  c #04221B",
",  c #011522",
"<  c #011B24",
"1  c #081C27",
"2  c #031D29",
"3  c #022223",
"4  c #002826",
"5  c #03252C",
"6  c #012B2B",
"7  c #09242B",
"8  c #032532",
"9  c #042C34",
"0  c #022E3C",
"q  c #003332",
"w  c #02343B",
"e  c #003B3B",
"r  c #013543",
"t  c #083341",
"y  c #013B44",
"u  c #0A3C47",
"i  c #053C4B",
"p  c #053E52",
"a  c #083C52",
"s  c #014244",
"d  c #084347",
"f  c #02444D",
"g  c #09444B",
"h  c #004B4D",
"j  c #00514F",
"k  c #024554",
"l  c #094354",
"z  c #024B53",
"x  c #03455A",
"c  c #094659",
"v  c #024C5A",
"b  c #094A5A",
"n  c #0A4D56",
"m  c #005356",
"M  c #01525D",
"N  c #01595F",
"B  c #054761",
"V  c #094561",
"C  c #044C60",
"Z  c #094D64",
"A  c #025462",
"S  c #015B64",
"D  c #025469",
"F  c #025C6C",
"G  c #095A6D",
"H  c #025D73",
"J  c #035471",
"K  c #036067",
"L  c #00626D",
"P  c #00696B",
"I  c #026273",
"U  c #096073",
"Y  c #016B75",
"T  c #096B76",
"R  c #02637B",
"E  c #026D7C",
"W  c #086C7B",
"Q  c #01737D",
"!  c #00797F",
"~  c #00837F",
"^  c #026D84",
"/  c #096E84",
"(  c #046D8A",
")  c #017384",
"_  c #0A7587",
"`  c #027C85",
"'  c #03748B",
"]  c #08758A",
"[  c #027C8C",
"{  c #097A8D",
"}  c #037692",
"|  c #097592",
" . c #027C93",
".. c #097A94",
"X. c #027798",
"o. c #027E9A",
"O. c #087E98",
"+. c #007FA0",
"@. c #008086",
"#. c #01828D",
"$. c #08808E",
"%. c #00898E",
"&. c #018294",
"*. c #0B8294",
"=. c #008A95",
"-. c #02849B",
";. c #09839B",
":. c #028A9C",
">. c #0B8E9E",
",. c #009297",
"<. c #01929C",
"1. c #0285A2",
"2. c #0983A4",
"3. c #028CA3",
"4. c #098BA2",
"5. c #0287A8",
"6. c #048DA9",
"7. c #0B8EAC",
"8. c #0294A4",
"9. c #0993A6",
"0. c #019AA4",
"q. c #0294AB",
"w. c #029BAD",
"e. c #0998A9",
"r. c #0B91AE",
"t. c #038FB0",
"y. c #0495B1",
"u. c #0894B2",
"i. c #029CB3",
"p. c #099DB5",
"a. c #0495BB",
"s. c #039CBA",
"d. c #089CBA",
"f. c #0C96BA",
"g. c #02A2AD",
"h. c #01A2B4",
"j. c #09A3B5",
"k. c #02AAB5",
"l. c #02A4BC",
"z. c #01AABD",
"x. c #09A3BB",
"c. c #01B1BD",
"v. c #049EC2",
"b. c #0C9CC1",
"n. c #02A5C2",
"m. c #09A3C4",
"M. c #01ABC4",
"N. c #0CACC4",
"B. c #02A5CC",
"V. c #08A6C9",
"C. c #02ACCB",
"Z. c #09ABCA",
"A. c #11A9CE",
"S. c #01B2C5",
"D. c #00B9C6",
"F. c #01B4CC",
"G. c #0BB3CD",
"H. c #01BACD",
"J. c #0BBACD",
"K. c #04ACD3",
"L. c #0CA8D1",
"P. c #02B5D3",
"I. c #0AB3D5",
"U. c #01BBD4",
"Y. c #08B8D0",
"T. c #03B4D9",
"R. c #08B6D9",
"E. c #02BCDB",
"W. c #09B9DB",
"Q. c #03BDE2",
"!. c #0BBDE3",
"~. c #04BFE8",
"^. c #08BDEA",
"/. c #01C2D5",
"(. c #00C9D6",
"). c #01C3DC",
"_. c #08C2DC",
"`. c #01CADD",
"'. c #09CBDE",
"]. c #00D1DE",
"[. c #02C4E3",
"{. c #0AC3E3",
"}. c #01CBE4",
"|. c #0ACAE6",
" X c #03C5EA",
".X c #09C6ED",
"XX c #02CCEB",
"oX c #09CCEC",
"OX c #00D2E5",
"+X c #06DCE7",
"@X c #01D3EC",
"#X c #08D1EC",
"$X c #02D9EC",
"%X c #07C6F0",
"&X c #03CDF2",
"*X c #09CCF2",
"=X c #04CDFA",
"-X c #09CEF9",
";X c #10C5FA",
":X c #02D3F3",
">X c #0AD2F4",
",X c #01DBF5",
"<X c #08D9F7",
"1X c #02D4FA",
"2X c #09D5FD",
"3X c #02DCFD",
"4X c #09DCFC",
"5X c #00E1F5",
"6X c #01E2FE",
"7X c #08E1FF",
"8X c #00E8FC",
/* pixels */
"!.M.l.XXL 3Xv @XM.f.,X:X4.).l.V.:X3X,X-.[.w.z.U.1.`. .S.F.F.T.C.D [.i.n.[.) 3Xh :X:.M.U.o.@Xz 3X-.U.P.&           # &.,X@X1X,X4.",
"z.z.3X[.U 6XM  XS.D &.:.%X9./.F.3X,X3X:X*. Xy.z.).6.:X=.&.o.&.=.-.@Xp.l.).) 3Xk @X-.M.U.&.:Xz 3X .P.P.&         o X 0 3XK.0.o.).",
"l.,X6XXXP 3Xz XX XF.F.M.' }.<.[.6X7X<Xd.OX=.).s.l./.q.>X}.#X@X@X@X@X<.M.[.E 6Xz :X-.S.P.&.:Xk ,X` P.P.= .           w 1X:. ./.z.",
"l.l.l.:.I.F.4.@XE.(./.Q.#X[ |.6.[.).M.XX:X:X=.[.w.V.U.A v m b v n z f M.E.' 3Xb @X:.C.P.o.@Xz ,Xo.W.U.=       X     0 3X=.N.E.Z ",
"s.p.i.H.G.-.@X .) ' ^ E l.@X`  X4.).S.:X3X6X:X-.[.i.M.2X,X,X,X:X3X1X1X3X).^ 6Xv :X-.M.T.o.:Xk ,X} F.H.& X           w 3X&.M.*Xi.",
" XXX|.F.:.<X-.&X6X3X6X6Xn.l.}.[ }.4.(.5X3X3XS.XX-.[.9.` [ [ -.} [ [  .[ Y ) ,Xz @X-.S.U.&.:Xz 3X .U.U.@     o       w 3X3.i.[.}.",
") Q Q q.:Xo.}.w.w w q d E.h.x.XX| XX5.).-XF.#XO.XX@.`.U.E.Q.U.E.U.).E.E.E.{.6Xz :X-.M.U.&.:Xb ,X@.T.F.; o       o . r :Xj.E _ ! ",
"5X4X3X3X/. .@Xn o       -.1XM ,X8.C.H.#.1Xh :X#.U.Z.^ M.C.M.M.M.C.M.z.C.S.z.Z.r @X:.C.P.o.@Xz ,X@.W.&X*.=.-.-.:.&.=.y.<X3X3X3X3X",
"E ) Y ' ).H.i.).p     X  .:XC ,X8.l.E.o.:Xs ,X&.H.).s.i.y.p.h.i.i.i.i.i.i.i.i.h.,X[ ).w.M.W.[ @X' OX,X,X3X,X1X,X:X5X5XE.E ) E E ",
"  X O o g _.T.d.).s   o [ :Xv 1Xq.M.U.1.<X6.2X[ B.[.|.XX@X}.}. XXX}.XXXXXXXX}.XX3.Q.l.l.[.[ OX;.}.M.b k b z k z c h oXz.#   o o ",
"o     o X f [.F.j.Q.p X ` <Xz ,X6.M.H.H.3X5X3Xq.z M M A M v C v v v v v M v M A ).j.n.).&.OX=.XXz.m.#X@X:X:X@X:X=XS  XM.+   o   ",
"  X   .   X f ).F.i.[.l  .:Xk ,X0.Z.E.XX6X,X6X3X6X5X5X,X3X6X6X6X6X6X3X3X6X3X3X3Xl.n.).[ &X-. Xz.n.[. .&.[ [ o.0.,XP &XV.+   o   ",
"            o k [.U.0..XE.,Xz ,X6.M.U.6.3XE.W S I H I I I I I I L I L L L L L L s.[.[ XX:.|.M.M.`.f     o O o D 6XH OXM., 1     ",
"  %   o o       p ).U.q.P.S.i 4X8.M.U.=.3X@XXXXX@X XXX}.oX}.}.}.XXXXXXXXXXXXXXXX[.@.#X-.}.M.k.[.s % X o       S 3XI }.C.:.P.&   ",
"        X       o d /.P.-.o.1.,Xq.S.G.A i.w.p.i.i.p.i.i.i.i.h.i.i.i.i.i.w.w.i.w.#.OX-.@XC.z.).f         X     N 5XH XXM.S ) @   ",
"X   o       o     X f .X6X5X6X3XM.u.@XM.n.x.z.l.l.l.l.M.n.l.n.n.l.M.l.M.n.n.n.M.@X;..XS.n.[.f       o     o o S 3XI XXoXM.C.-.= ",
"& o .     .         o ; 9 0 r M }.z.j.[.)./. X).[.).).[.).[.[.).Q.).).).[.[.).).1. X6X,XXXl o o   .         ; n.Q.-.@X}.E.[.#X<.",
"0.=   o       o         X   o   h [.Z.) [ ) ' ) ) ' ' ) ' ) ) ) ' ' [ ' ) ) ' [ XX#X3X,X|.& X X       o   ; p./.:.:X&.' ) ^ [ :X",
"XX8.&   o                       o N 1X5X4X4X3X3X6X3X3X3X6X3X6X3X3X6X3X3X3X7X3X6Xz.F.6X3Xz.+ .         o ; l.!.5.:X4.{.3X6X3X}.-.",
"-.*X9.=   o               o       4 :X@X1X@X&.) ) ) ) ) ) ) ) ) Q ) ' ) Q / y.:X:XXXY I ;   .   o   X ; s.U.<.XX:.[.l.M z k 8.XX",
"XX=.OXq.& o                       6 :X3X3X3X:XOXXXXX X&XXX&XXXXXXXXXXX XXX@X:X,X4XM.+ o   o         , k.!.>.:X3.}.n.z.OXXXOXP.r.",
"9.XX1.`.e.&                     o 6 :X3X3X5Xl.m.l.h.s.h.s.h.s.h.h.s.s.l.h.h.E.3X3X0.# o           * l.).2.@X:.`.k.M.E.6.0.6.D.U.",
"U.q.:X=. X8.= o                   7 :Xz.U.&XN h.l.l.l.l.l.l.l.l.l.z.z.M.n.n.F.H.4.; X       o   < p.Q.,.:X:.%Xl.V.).;.F.Z.C.3.M.",
"l.U.6.#X-.@X8.&                   8 1Xi.g..X^ 3X[.[.[.[.[.[.[.[.[.[.).).E.[.XXT.=         o   ; h.).-.>X:.}.k.V.E.:.@XT./.H.XXw.",
"i.l.).3.XX-.@Xq.< & & = = & = $ $ e XXh.i. X' 7Xi ; 1 < : * < < < ; ; < < 3 K.H.-       .   < h.[.-.,X-.[.z.n./.:.OX' &.&.-./  X",
"`.u.m./.<.&X&.oXY.T.H.H.T.H.U.P.T./.1Xl.i.@XE 6Xy X       O . o       X   @ M.F.& o X     ; l.E.-.:X&.oXn.M.E.3.}...XX@X:X,X:X&.",
"-.:Xv 3XQ ).n.v.3XQ.T.P.T.J.F.E.F.Q.).XX&.|.1.F.C.3 o       o             + C.W.&   X O , l./.4.,X:.|.l.M.E.-.@X{ }.8.l e r /.z.",
"=.@Xl 3XE ).z.h.@Xe #.#.-. .=.&.-.o.@.w.}.=.#X:.H.I.b     o   . o     . . @ M.F.-   O = l.U.<.:X-.}.l.z./.:.XX[ [.p.P.:X:X[ P.C.",
"&.XXz 6X) /.C.n.:Xc 3X1X:X1X:X1X$X:X1XU.s. X;.XX:.F.%XK + X   X o X X o   ; F.F.& X ; l.E.:.*X:. Xl.V.U.:.%X . Xq.P.G.:.,Xo.H.M.",
"3.:Xk 6X) [.XX6X5Xi.3X{ y e y u y s v E.S.k.:X-.XX=.:.OXo.| ' ' ' ] ) ) ] f.XX' 6.4.M.).:.1X:.}.z.z./.:.&X` }.0.H.E.*.w $X-.U.C.",
"O.&Xn 3X)  X,X6X3X).6X) T.,X@X:X,X:X>X3.Y.F.s.XX-.@XW.:.$X1X3X,X:X4X3X,X3X`.[ XX:XXX/.,.1X:.).l.n.[.4.@X[ XXu.U.H.h.:Xk 1X&.T.M.",
"-.@Xf 6XE [.[.:X,X2.6X' ).U.#.-.-.&.=.XX8.).F.w.XX&.}.E.N z z z z z m B z W }.;.k z =.#X2.[.z.Z.U.:.@X'  X0.U.G.0.2X,Xm 1Xo.H.M.",
"-.:Xk 6XQ [.M.l.:Xz 3X' Q.l.#.H.T.U.D.o.*X0.E.P.w.1XY m.,X@X:X@X:X@X:X:X@X@X:.E.3X7X6X&.E.M.p.).' $XQ }.w.C./.S P.E.F.r ,X..U.M.",
":.XXz 5X! Q.n.s.OXl 7X( ).k.s.,Xc.z.P.@X^ OX#.!.j.h.7Xn.` o.=.o.#.o.&.-.#...).U.#.l.3Xh :X#.P.F.-.XXk 6X' F.U._ ^ ) ) ! ,X-.U.M.",
"=. Xb 6X_ E.l.l.,Xz ,X[  Xh.s.XXr [ ) 3Xk :X8.M.U.;.,X5X).Y.U.U.U.U./.P.E.[.F.8.=.:.6Xm :X=.C.P.-.@Xz 4X) ).3X3X6X8X4X6X,X[ T.M.",
":.XXk 3X^ [.z.h.-Xz 8XQ ).n.u.XXc q.Y 3Xk XXq.M.P.-.5X3X3XE.U.U.E.E.H.Q. X6XH U.w.;.3Xk =X&.P.C.&.:Xz 3X` w k b k l k z l i /.C.",
"&.:Xk 6X) [.l.h.:Xk 6X} [.n.s.@Xq.s.F.,XA >X-.U.L.<.,X1X1Xy ^ o.[ o.` G  .6XS - = / ,XL XX9.Z./._ @XS 3X:X1X@X@X#X:X:X:X@X:X,XZ.",
"5.}.n 3X^ ).n.h.:Xk 3XQ [.h.8.}.OXXX}.=.[.i.l.).@.@X[ p.1Xe ,X:X3X,X3XH.| 8XA     < i.}.[ XX:.).z.l. X] :.:.1.3.3.-.1.:.-.:.=.R ",
").@Xh 3X/ ).B.i.@Xg 3X .[.S.k b v v S {.l.n.W.&.:X&.- y.@Xi ,X:.y l V.H.$.<XD     o , g.}.[ &X4. XM.z.}.Y.C.H.S.G.H.U.C.F.G.S.F.",
"F.n.i 3XQ ).B.h.:Xs j.[.-.,X3X6X3X5X6Xl.n.).&.@X' @ X g.1Xi :X' M.8.z.E. .6XA X       < g. X[ OX-.).M.0.T.D.F.I.F.F.F.Y.C.F.T.F.",
"&.o.:.6X/ [.l.l.,XU.l.p.[.Q I L R L L x./.o.#X[ @   X u.,Xe 1X-.l f C.F.[ 4XA           1 i.}.[ }.,.[.z.&.-.-.o.[ &. .&. .-.-. .",
"@X:X@XU.>.OX-.XXE.E.[.F.g.@X`. X[.*X*X/.#.:X[ @     o l.>Xe :XXX`. X,XH.&.6XS o           < i.}.} XX3.U.#X:XOX@X:X@X:X:X:X@X:X@X",
"h V M ,.XX-.*Xw.) ` E !.F.4.s.h.s.g.q.-.:X[ +   .   o 0.,Xt q.i.g.b.i.[ } 5XD     O     o   < i.}.} :X&.z v z b k k v v v z z z ",
",X,X,X6X-.C.}.T 3X5X[.^ <XT.i.M.z.l.M.OX[ + .   X o X i.2XM.k.v.M.i.z.n.U.6XS X           o   1 i.oX@.=X,X2X,X,X3X4X,X,X:X<X,X,X",
") ] ( ) f M.).A M.C.i.h.@X@XXX|.XXXX6XU.b l g k k h M /.@X X#XXX}.|.[.-X[.>Xl., .     o         < w.`.E Q ) ' q.<.[ ) ) ' ^ ^ ' ",
"E.E.E.H.{.>X:X:.:.-.Z.}.z < ; ; 3 z XX3X4X3X3X3X3X<X5XT.A j v z M v M v v Y oXw.; o               > f.-X/.E.[.3X:X[.Y.E.).E.E.E.",
"U.E.H.W.P.).1X5X+X<X[.l o     o w W.E.-.-.-.=.-.&.&.-.y.,X6X6X3X6X3X6X7X6X:X3.:Xj.; o     .         9 :X`.Y.@X3X6XXXU.F.P.U.P.H.",
"&. .&.&.Y O.3XE r w 3     ; 8 f Q.U.8.F.Y.P.U.G.Y.H.E. X&.^ ) Q ) ^ Q Q ) :. X=.&Xw.< X X   o   o   6 3X8.H C.3X,XF.1.&.&.&.&.-.",
"*X:X,X3XU.[ 6XD o       3 W.3X:XU.y.}.M.M.S.M.M.z.z.M.&.[.OXXX XOX XXX[.}.P.3.].:.@Xi.>   o     X . 5 @Xq.l.<X:X:X@X@X:X:X@X=X@X",
"k z r N.U.] ,XK       O ^ 3X6X,Xk.[. .3.8.8.7.8.q.6.u.XXn.w.l.s.d.l.d.v.k.S.E.6.XX&.XXi., . X   o   9 :X8.C.E.r l v m k z h M h ",
",X<X9.M.E.[ 6XN X o     D ,X6X3X XO. X*XXX$X@X:XXX&X:X3.k.n.i.M.n.z.l.k.M.3.l.).3.XX:.&Xi.3   o     8 ,Xq.V.H.` $X,X<X:X1X,X1X4X",
"-.:Xw.M.W.[ 3XD     o e W.U.H.XX[ }.=.z k k l h h b N E.[. X)././.[.[.).Q.&Xu.l.U.6.}.=.@Xw.<     X 4 @Xq.z.U.;.,X-.} o.#. . .` ",
"y }.y.F.T.[ 3XD X . r U./.p.}.[ }.8./.7X6X3X3X6X3X6X5Xl.T ^ ) ( ' Q ^ _ Q Q ).j.z.E.8.[.<.&Xi.3 o   8 <Xq.z.H.&.:Xr N.P.H.Y.E.I.",
"D }.i.z.H. .3XS   w E./.y.(.[  X4.T.Z.Q ) ) ) ' Q ( ^ w.3X6X3X6X3X6X7X,X7X<X:.).w.l./.:. X:.oXi.;   6 ,X6.z.P.o.:Xy $XE.M.M.H.3X",
"q.,XM.F.H.[ 6XS t E.H.q.}.[ >X3.Q.M.l.:X}.XXXX).XX}.XX).H l h z z k z ) E.[.&X>.`.a.n.).3.}.;.@Xd.3 3 *Xq.M.T.#.>Xf :X&.[ 3.E 6X",
",X6X<X}.E.[ 3X .).P.y.}.| }.3.E.z.l.(.h.s.i.s.l.s.h.i.&.XXOX:XXX@XXX=X3X,X,XI.OX2.`.0.M./.3.}.-.@Xw.v ,Xq.V.P.=.@Xs =X-.F.|./ 3X",
",X3X5XXXN.6.3X6X).;.:XR OX3.I.F.w. XY g.i.s.i.h.h.i.n.OX6.:.-.-.-.1.,.}.3X6X}.} :X`  X0.M.P.#.:X .XX$X3Xe.l.).#.1XM $X-.y y &.5X",
"}.[.>X/.&.@Xy.:XC.i.}.H 6XY XXw.C.Q.Q 5X X1X X}.[.@X[.*.C.K.z.S.z.S.M.^.1XT.5Xk #X=.C.T.&.:XA ,X[ E.XXh.*X3.`.l.c.).:.:XXX&X:Xu.",
"l.z.E.;.@X| 8 XXM.w.XXY 3XI  Xp.k.!.^ 3Xz L Q ' ] ) ` [.E./.E.H.U.P.E.*X).' 6Xj :X-.S.T.&.&Xk ,X} Y.E.3  .@X*. Xh.V.!.o.8.8.[ E.",
"h.!.&.@X[ $ ; XXZ.i.OXH 7XH }.i.M.E.) 3Xg @X7X3X3X6X3Xv.[ #.;.o.o.&.D z.).^ 3Xz :X:.C.H. .:Xb ,X&.Y.U.@ & ` :X-.XXh.M.[.A.S.).l.",
"[.=.oX@.q 3 > }.M.j.}.F 6XI }.i.C./.) 3Xk :X-.q q 9 9 z.,X5X,X2X:X6Xi.p.[.) 7Xk XX:.C.H.&.:Xb :X:.).W.&   @ [ @X=.XXl.g.F.U.y.n.",
"#.:X4.E.:X#Xf &XM.i.XXY 3XI  Xi.z.U.! 3Xh 1X[ o X o , }.P.:X3X`.b }.w.M.).Y 3Xz @X-.M.P.#.:Xz ,X@X3X:Xp X   @ } =X5.'.M.&.&.n.[.",
"*X8.Q.Z.i.3XC }.M.s.}.S 3XY }.s.z. X! 4Xv @X[ X   X 2 `.[.3X6X5XE &Xi.l.[.` 5Xh :X-.C.H.-.@Xv ,X6X3X3XE     X + ` @X%.[.&X:X/.#.",
"8.).M.` H 6XM XXn.h.}.B E.z.l.}.4.@X} [.w.z.E.w ; 1 9 }.F. X3X,X) XXw.M.Q./ 3Xx @X3.M.U. .:Xv :XXX,X@X5         @ ' @X .f s  .#X"
};
