/* XPM */
static char *a42fb6fa151c4d82ab62740e68599daf[] = {
/* columns rows colors chars-per-pixel */
"64 64 223 2 ",
"   c black",
".  c #010000",
"X  c #000100",
"o  c #010100",
"O  c #010101",
"+  c #030000",
"@  c #030100",
"#  c #000200",
"$  c #000300",
"%  c #010300",
"&  c #030200",
"*  c #000002",
"=  c #010002",
"-  c #000102",
";  c #030002",
":  c #000302",
">  c #010302",
",  c #000203",
"<  c #020202",
"1  c #040000",
"2  c #050000",
"3  c #040100",
"4  c #040001",
"5  c #070000",
"6  c #050102",
"7  c #040003",
"8  c #040203",
"9  c #000400",
"0  c #010400",
"q  c #000500",
"w  c #000600",
"e  c #020700",
"r  c #000502",
"t  c #000702",
"y  c #050400",
"u  c #000005",
"i  c #030004",
"p  c #000304",
"a  c #000305",
"s  c #000007",
"d  c #030007",
"f  c #000306",
"g  c #000207",
"h  c #000307",
"j  c #040004",
"k  c #060004",
"l  c #070005",
"z  c #070006",
"x  c #060007",
"c  c #070206",
"v  c #000504",
"b  c #000505",
"n  c #030504",
"m  c #000704",
"M  c #000606",
"N  c #000706",
"B  c #000707",
"V  c #090000",
"C  c #0B0000",
"Z  c #0B0001",
"A  c #0B0200",
"S  c #0A0002",
"D  c #0C0000",
"F  c #0E0000",
"G  c #0F0000",
"H  c #0E0003",
"J  c #080006",
"K  c #0D0105",
"L  c #000803",
"P  c #000A02",
"I  c #000805",
"U  c #000C04",
"Y  c #010109",
"T  c #000309",
"R  c #00000B",
"E  c #00010B",
"W  c #00030A",
"Q  c #00020B",
"!  c #040008",
"~  c #000408",
"^  c #000508",
"/  c #010508",
"(  c #000409",
")  c #000608",
"_  c #010609",
"`  c #00040A",
"'  c #00050B",
"]  c #00000C",
"[  c #01000C",
"{  c #00000D",
"}  c #00030C",
"|  c #07000C",
" . c #00070D",
".. c #01050E",
"X. c #090008",
"o. c #080009",
"O. c #090009",
"+. c #09000B",
"@. c #0D010B",
"#. c #0A000F",
"$. c #0C000E",
"%. c #000808",
"&. c #000909",
"*. c #05090A",
"=. c #110000",
"-. c #130000",
";. c #140000",
":. c #120007",
">. c #000113",
",. c #010214",
"<. c #060E11",
"1. c #030E14",
"2. c #001115",
"3. c #2F274C",
"4. c #372555",
"5. c #3B2554",
"6. c #332B50",
"7. c #302952",
"8. c #342D56",
"9. c #3B275A",
"0. c #3C225F",
"q. c #3C285B",
"w. c #2E2368",
"e. c #2B286B",
"r. c #322366",
"t. c #362166",
"y. c #332467",
"u. c #392469",
"i. c #401F4A",
"p. c #51184B",
"a. c #4B175F",
"s. c #581F52",
"d. c #6C154A",
"f. c #671B4A",
"g. c #691D4C",
"h. c #711A4F",
"j. c #45244F",
"k. c #58275E",
"l. c #65265B",
"z. c #64255E",
"x. c #68295E",
"c. c #4C1862",
"v. c #5B1D68",
"b. c #5D1F6A",
"n. c #5B1E6C",
"m. c #582367",
"M. c #5B2A61",
"N. c #56226C",
"B. c #5F216A",
"V. c #592468",
"C. c #5D2468",
"Z. c #58246E",
"A. c #5A2377",
"S. c #5C2579",
"D. c #672861",
"F. c #60276B",
"G. c #61236C",
"H. c #BB001E",
"J. c #BE1439",
"K. c #B82432",
"L. c #B92533",
"P. c #D00508",
"I. c #D2070A",
"U. c #D2000C",
"Y. c #D4000E",
"T. c #CB0713",
"R. c #CC0814",
"E. c #DC0011",
"W. c #DF0014",
"Q. c #D7011B",
"!. c #D0061E",
"~. c #DB011A",
"^. c #D8001C",
"/. c #D9001D",
"(. c #DE041D",
"). c #EA0007",
"_. c #F2000F",
"`. c #D8261C",
"'. c #D5281A",
"]. c #DB291D",
"[. c #DA2D1F",
"{. c #E12519",
"}. c #E3271B",
"|. c #E0251C",
" X c #E1261D",
".X c #C50025",
"XX c #CC0022",
"oX c #CD0026",
"OX c #CE0027",
"+X c #CE0227",
"@X c #CB042B",
"#X c #D30020",
"$X c #D20120",
"%X c #D00026",
"&X c #D20820",
"*X c #D2002B",
"=X c #D00429",
"-X c #D5002E",
";X c #C20E35",
":X c #C30F36",
">X c #D0033E",
",X c #D4262F",
"<X c #DA252A",
"1X c #DD262A",
"2X c #DD282D",
"3X c #D32232",
"4X c #D52434",
"5X c #D72932",
"6X c #D02538",
"7X c #D32639",
"8X c #D2273A",
"9X c #D4273A",
"0X c #D9233A",
"qX c #DB253C",
"wX c #D52939",
"eX c #D62A3A",
"rX c #D72A3D",
"tX c #E72027",
"yX c #EE202D",
"uX c #EC252C",
"iX c #F22431",
"pX c #DA2D40",
"aX c #D33242",
/* pixels */
"aXtX9XrX|.,X[.3X1X1X1X1X1X1X1X1X1X1X1X1X1X1X1X1XqX`.2X{.eX8XyXL.aXtXrXrX].,X].3X1X1X1X1X1X1X1X1X1X1X1X1X1X1X1X1XqX`.1X|.eX7XyXL.",
"uXJ.h.n.b.A.x.l.V.V.V.V.V.V.V.V.V.V.V.V.V.V.V.m.F.k.S.G.Z.g.:X_.uXJ.h.n.b.A.D.l.V.V.V.V.V.V.V.m.V.V.V.V.V.m.V.V.F.k.S.G.N.g.:X_.",
"7Xd.<.%.~ >.@.{ ,...................,.{ ........T @ #.:.~ 2.p..X7Xd.<.%.~ ,.@.{ ....,.{ ......................{ T @ #.:.n 2.p..X",
"pXn.%.@ @ @ 6 L 6 @ 6 @ @ 6 @ 6 @ 6 6 @ 6 @ 6 @ { T p 6 y L 0.!.rXB.%.@ @ @ 6 0 @ 6 6 @ 6 @ 6 @ 6 @ 6 6 6 @ 6 @ { T p 6 6 L t.&X",
"|.v.h 6 T p @ 0 @ p @ p @ p @ p @ p @ p @ p @ p ;.S p p @ T w.T.|.v.p @ T p p 0 @ p @ p @ p @ p @ @ @ p @ p @ p =.S @ p 0 p w.R.",
"5XS.,.6 p @ 6 S p @ p @ @ @ p @ p @ p @ p @ p @ p p T z @ o.u.Q.5XS.,.z p p 6 H p @ p @ p @ p @ p @ p @ p @ p @ 0 T { T 6 J u.^.",
"'.l.J 6 @ 6 0 @ @ @ @ @ @ @ @ @ @ @ @ @ @ @ @ @ @ S 0 S @ h 5.E.'.l.J 6 @ 6 @ 0 @ @ @ @ @ @ @ @ @ @ @ @ @ @ @ @ @ S @ S 0 h 5.E.",
"4XD.{ L @ S @ { @ @ @ @ @ @ @ @ @ @ @ @ @ @ @ @ z z I H @ h 8.OX4XD.T L @ S @ { @ @ @ @ @ @ @ @ @ @ @ @ @ @ @ @ | n L H @ h 8.OX",
"1Xm...6 @ p @ @ @ @ @ @ @ @ @ @ @ @ @ @ @ @ @ @ @ p @ @ p ~ 4.$X1Xm...6 @ p @ @ @ @ @ @ @ @ @ @ @ @ @ @ @ @ @ @ @ @ @ @ p ~ 4.$X",
"1Xm...@ @ @ @ @ @ @ @ @ @ @ @ @ @ @ @ @ @ @ @ @ @ @ @ @ z ~ 4.$X1Xm...@ @ p @ @ @ @ @ @ @ @ @ @ @ @ @ @ @ @ @ @ @ @ @ @ p T 5.#X",
"1Xm...@ @ p @ @ @ @ @ @ @ @ @ @ @ @ @ @ @ @ @ @ @ @ @ @ @ ~ 4.$X1Xm...6 p @ @ @ @ @ @ @ @ @ @ @ @ @ @ @ @ @ @ @ @ p @ @ p ~ 4.$X",
"1Xm...@ @ p @ @ @ @ @ @ @ @ @ @ @ @ @ @ @ @ @ @ @ p @ @ p ~ 5.#X1Xm...@ @ @ @ @ @ @ @ @ @ @ @ @ @ @ @ @ @ @ @ @ @ @ @ @ z ~ 4.$X",
"1Xm...@ @ p @ @ @ @ @ @ @ @ @ @ @ @ @ @ @ @ @ @ @ p @ @ z ~ 4.$X1Xm...@ @ @ @ @ @ @ @ @ @ @ @ @ @ @ @ @ @ @ @ @ @ @ @ @ p ~ 4.$X",
"1Xm...6 @ p @ @ @ @ @ @ @ @ @ @ @ @ @ @ @ @ @ @ @ @ @ @ p ~ 4.$X1Xm...6 @ @ @ @ @ @ @ @ @ @ @ @ @ @ @ @ @ @ @ @ @ @ @ @ z h 5.$X",
"1Xm...@ p @ @ @ @ @ @ @ @ @ @ @ @ @ @ @ @ @ @ @ @ p @ @ z ~ 5.#X1Xm...@ @ p @ @ @ @ @ @ @ @ @ @ @ @ @ @ @ @ @ @ @ p @ @ p ~ 4.$X",
"1Xm...6 @ @ @ @ @ @ @ @ @ @ @ @ @ @ @ @ @ @ @ @ @ @ @ @ p ~ 4.#X1Xm...6 p @ @ @ @ @ @ @ @ @ @ @ @ @ @ @ @ @ @ @ @ @ @ @ z ~ 4.$X",
"1Xm...6 @ @ @ @ @ @ @ @ @ @ @ @ @ @ @ @ @ @ @ @ @ @ @ @ p ~ 4.$X1Xm...6 @ @ @ @ @ @ @ @ @ @ @ @ @ @ @ @ @ @ @ @ @ p @ @ p ~ 4.$X",
"1Xm...@ @ @ @ @ @ @ @ @ @ @ @ @ @ @ @ @ @ @ @ @ @ p @ @ p ~ 4.$X1Xm...@ p p @ @ @ @ @ @ @ @ @ @ @ @ @ @ @ @ @ @ @ @ @ @ p T 5.#X",
"1Xm...6 @ @ @ @ @ @ @ @ @ @ @ @ @ @ @ @ @ @ @ @ @ @ @ @ z ~ 5.$X1Xm...@ @ p @ @ @ @ @ @ @ @ @ @ @ @ @ @ @ @ @ @ @ @ @ @ p ~ 4.$X",
"1Xm...@ @ p @ @ @ @ @ @ @ @ @ @ @ @ @ @ @ @ @ @ @ p @ @ p ~ 4.$X1Xm.,.@ @ @ @ @ @ @ @ @ @ @ @ @ @ @ @ @ @ @ @ @ @ p @ @ z ~ 4.$X",
"1Xm...6 p @ @ @ @ @ @ @ @ @ @ @ @ @ @ @ @ @ @ @ @ @ @ @ p ~ 5.$X1Xm...@ p @ @ @ @ @ @ @ @ @ @ @ @ @ @ @ @ @ @ @ @ @ @ @ p ~ 4.$X",
"1Xm...@ @ p @ @ @ @ @ @ @ @ @ @ @ @ @ @ @ @ @ @ @ p @ @ z ~ 4.$X1Xm...6 @ @ @ @ @ @ @ @ @ @ @ @ @ @ @ @ @ @ @ @ @ @ @ @ z ~ 5.$X",
"1Xm...@ @ @ @ @ @ @ @ @ @ @ @ @ @ @ @ @ @ @ @ @ @ @ @ @ p ~ 4.$X1Xm...@ @ p @ @ @ @ @ @ @ @ @ @ @ @ @ @ @ @ @ @ @ p @ @ p ~ 4.$X",
"1Xm.,.@ @ p @ @ @ @ @ @ @ @ @ @ @ @ @ @ @ @ @ @ @ @ @ @ z ~ 5.#X1Xm...6 @ p @ @ @ @ @ @ @ @ @ @ @ @ @ @ @ @ @ @ @ @ @ @ z ~ 4.$X",
"0XC.T { =.h 0 o.@ @ @ @ @ @ @ @ @ @ @ @ @ @ @ @ p @ L =.@ ~ q.*X0XC.T { =.h 0 | @ @ @ @ @ @ @ @ @ @ @ @ @ @ @ @ p 6 L =.6 ~ q.*X",
"].M.h ~ S p 6 6 @ @ @ p p @ @ p @ p p @ @ @ p @ @ S h J 0 L 7.Y.].M.h T S p 6 6 @ @ p @ @ p @ p @ p @ p @ p @ @ @ S T z 0 L 6.Y.",
"<XS.| p p { 0 L @ @ @ @ 0 @ @ 0 @ @ @ @ @ @ @ @ U ~ T ..@ | e.Q.<XS.| p p T 0 I 0 @ @ 0 @ @ @ @ @ @ @ @ @ @ @ 0 I ~ T ~ @ #.e.^.",
"{.G.H 6 p T K H @ @ @ @ @ @ @ @ @ @ @ @ @ @ @ @ =.6 T o.@ 0 c.I.{.G.H 6 p p K H @ @ @ @ @ @ @ @ @ @ @ @ @ @ @ 0 =.z T o.@ 0 c.I.",
"eXZ.~ 6 0 @ L @ p p z z p z z @ p p z z @ p z p 6 0 @ 0 @ I r.OXeXZ.h 6 @ @ 0 @ z @ z z p z @ z p z p z z @ z z @ 0 @ 0 @ I r.=X",
"7Xf.2.0 T z *.h ~ T ~ ~ h h ~ ~ ~ T ~ ~ ~ T ~ ~ ..L @.h h 1.j.XX6Xf.2.0 T | *.h ~ ~ ~ ~ ~ ~ ~ ~ T ~ ~ h ~ ~ ~ ~  .I #.y h 2.i.XX",
"iX;Xs.0.w.t.5.7.5.4.4.4.4.4.4.4.5.4.4.4.5.4.4.4.9.3.e.a.y.j.>X(.iX;Xk.0.w.t.5.7.4.4.4.4.5.4.4.4.4.4.4.4.4.4.4.4.9.3.e.a.y.j.>X(.",
"K.).@X!.T.Q.W.OX$X$X$X$X$X$X$X$X$X$X$X$X$X$X$X$X-XU.^.P.+X%X~.H.L.).@X!.R.^.E.OX$X$X$X$X$X$X$X$X$X$X$X$X$X$X$X$X-XU.^.P.OX%X~.H.",
"aXtX9XrX|.,X].3X1X1X1X1X1X1X1X1X1X1X1X1X1X1X1X1XqX`.2X{.eX4XyXL.rXtX9XrX}.4X[.3X1X1X1X1X1X1X1X1X1X1X1X1X1X1X1X1XqX`.1X|.eX7XyXL.",
"uXJ.h.n.B.A.D.z.V.V.V.m.V.V.m.m.V.V.V.m.V.V.V.V.F.k.S.G.N.g.:X_.uXJ.h.N.b.A.x.l.V.V.V.V.V.V.V.m.V.V.V.V.V.m.V.V.F.k.S.G.N.g.:X_.",
"7Xd.<.%.~ >.@.T ............................,...T @ #.:.~ 2.p..X8Xd.<.%.~ ,.@.{ ....,.{ ......................{ T @ #.:.n 2.p..X",
"pXn.%.@ @ @ 6 L @ 6 6 @ 6 6 6 @ @ 6 6 @ 6 @ @ @ { ~ p 6 6 L t.&XpXN.%.@ @ @ 6 0 @ 6 6 @ 6 @ 6 @ 6 @ 6 6 6 @ 6 @ { T p 6 6 L t.&X",
"|.v.T 6 T p p 0 @ p @ p @ p @ p @ p @ p p @ p @ ;.S @ p 0 p w.R.|.v.p @ T p p 0 @ p @ p @ p @ p @ @ @ p @ p @ p =.S @ p 0 p w.R.",
"5XS.>.6 p @ S S @ @ p @ p @ p @ @ @ p @ @ @ @ p 0 T { T @ J u.^.5XS.,.z p @ 6 S p @ p @ p @ p @ p @ p @ p @ p @ 0 T { T 6 J u.^.",
"'.l.J 6 @ 6 0 @ @ @ @ @ @ @ @ @ @ @ @ @ @ @ @ @ 0 S @ J @ h 5.E.'.l.J 6 @ 6 @ 0 @ @ @ @ @ @ @ @ @ @ @ @ @ @ @ @ @ S @ S 0 h 5.E.",
"4XD.{ 0 0 S @ { @ @ @ @ @ @ @ @ @ @ @ @ @ @ @ @ z z I =.@ ~ 8.OX4XD.T L @ S @ { @ @ @ @ @ @ @ @ @ @ @ @ @ @ @ @ | n L H @ h 8.OX",
"1XV...6 @ @ @ @ @ @ @ @ @ @ @ @ @ @ @ @ @ @ @ @ @ @ @ @ p ~ 4.$X1Xm...6 @ p @ @ @ @ @ @ @ @ @ @ @ @ @ @ @ @ @ @ @ @ @ @ p ~ 4.$X",
"1Xm...@ @ @ @ @ @ @ @ @ @ @ @ @ @ @ @ @ @ @ @ @ @ p @ @ p ~ 4.$X1Xm...@ @ p @ @ @ @ @ @ @ @ @ @ @ @ @ @ @ @ @ @ @ @ @ @ p T 5.#X",
"1Xm...6 @ @ @ @ @ @ @ @ @ @ @ @ @ @ @ @ @ @ @ @ @ @ @ @ z ~ 5.$X1Xm...6 p @ @ @ @ @ @ @ @ @ @ @ @ @ @ @ @ @ @ @ @ p @ @ p ~ 4.$X",
"1Xm...@ p p @ @ @ @ @ @ @ @ @ @ @ @ @ @ @ @ @ @ @ p @ @ p ~ 4.$X1Xm...@ @ @ @ @ @ @ @ @ @ @ @ @ @ @ @ @ @ @ @ @ @ @ @ @ z ~ 4.$X",
"1Xm...6 @ @ @ @ @ @ @ @ @ @ @ @ @ @ @ @ @ @ @ @ @ @ @ @ p ~ 4.$X1Xm...@ @ @ @ @ @ @ @ @ @ @ @ @ @ @ @ @ @ @ @ @ @ @ @ @ p ~ 4.$X",
"1Xm...@ @ p @ @ @ @ @ @ @ @ @ @ @ @ @ @ @ @ @ @ @ p @ @ z ~ 4.$X1Xm...6 @ @ @ @ @ @ @ @ @ @ @ @ @ @ @ @ @ @ @ @ @ @ @ @ z h 5.$X",
"1Xm...6 @ @ @ @ @ @ @ @ @ @ @ @ @ @ @ @ @ @ @ @ @ @ @ @ @ ~ 4.$X1Xm...@ @ p @ @ @ @ @ @ @ @ @ @ @ @ @ @ @ @ @ @ @ p @ @ p ~ 4.$X",
"1Xm.{ @ p p @ @ @ @ @ @ @ @ @ @ @ @ @ @ @ @ @ @ @ p @ @ p ~ 5.#X1Xm...6 p @ @ @ @ @ @ @ @ @ @ @ @ @ @ @ @ @ @ @ @ @ @ @ z ~ 4.$X",
"1Xm...@ @ p @ @ @ @ @ @ @ @ @ @ @ @ @ @ @ @ @ @ @ @ @ @ z ~ 4.$X1Xm...6 @ @ @ @ @ @ @ @ @ @ @ @ @ @ @ @ @ @ @ @ @ p @ @ p ~ 4.$X",
"1Xm...6 @ p @ @ @ @ @ @ @ @ @ @ @ @ @ @ @ @ @ @ @ p @ @ p ~ 4.$X1Xm...@ p p @ @ @ @ @ @ @ @ @ @ @ @ @ @ @ @ @ @ @ @ @ @ p T 5.#X",
"1Xm...@ @ p @ @ @ @ @ @ @ @ @ @ @ @ @ @ @ @ @ @ @ @ @ @ z ~ 5.#X1Xm...@ @ p @ @ @ @ @ @ @ @ @ @ @ @ @ @ @ @ @ @ @ @ @ @ p ~ 4.$X",
"1Xm...6 @ @ @ @ @ @ @ @ @ @ @ @ @ @ @ @ @ @ @ @ @ p @ @ p ~ 4.#X1Xm.,.@ @ @ @ @ @ @ @ @ @ @ @ @ @ @ @ @ @ @ @ @ @ p @ @ z ~ 4.$X",
"1Xm...6 @ @ @ @ @ @ @ @ @ @ @ @ @ @ @ @ @ @ @ @ @ p @ @ p ~ 4.$X1Xm...@ p @ @ @ @ @ @ @ @ @ @ @ @ @ @ @ @ @ @ @ @ @ @ @ p ~ 4.$X",
"1Xm...@ @ @ @ @ @ @ @ @ @ @ @ @ @ @ @ @ @ @ @ @ @ @ @ @ p ~ 4.$X1Xm...6 @ @ @ @ @ @ @ @ @ @ @ @ @ @ @ @ @ @ @ @ @ @ @ @ z ~ 5.$X",
"1Xm...6 @ p @ @ @ @ @ @ @ @ @ @ @ @ @ @ @ @ @ @ @ @ @ @ z ~ 5.$X1Xm...@ @ p @ @ @ @ @ @ @ @ @ @ @ @ @ @ @ @ @ @ @ p @ @ p ~ 4.$X",
"1Xm...@ @ p @ @ @ @ @ @ @ @ @ @ @ @ @ @ @ @ @ @ @ p @ @ p ~ 4.$X1Xm...6 @ p @ @ @ @ @ @ @ @ @ @ @ @ @ @ @ @ @ @ @ @ @ @ z ~ 4.$X",
"0XC...{ =.h 0 | @ @ @ @ @ @ @ @ @ @ @ @ @ @ @ @ @ y L =.6 ~ q.*X0XC.T { =.h 0 | @ @ @ @ @ @ @ @ @ @ @ @ @ @ @ @ p 6 L =.6 ~ q.*X",
"].M.0 { 6 p 6 z p @ p @ @ p p @ @ @ p @ @ p @ p @ H ~ z 0 L 6.Y.].M.h T S p 6 6 @ @ p @ @ p @ p @ p @ p @ p @ @ @ S T z 0 L 6.Y.",
"<XS.| p @ T 0 I @ @ @ @ @ @ @ @ @ @ 0 @ @ @ @ @ U ~ { ~ @ o.e.^.<XS.| p p T 0 I 0 @ @ 0 @ @ @ @ @ @ @ @ @ @ @ 0 I ~ T ~ @ #.e.^.",
"{.G.H S p T J H @ @ @ @ @ @ @ @ @ @ @ 0 @ @ @ @ =.z ~ | @ 0 c.P.{.G.H 6 p p K H @ @ @ @ @ @ @ @ @ @ @ @ @ @ @ 0 =.z T o.@ 0 c.I.",
"eXZ.~ 6 @ @ 0 @ 6 z p z p z @ p z p z z p z @ z @ 0 @ 0 y I r.=XeXZ.h 6 @ @ 0 @ z @ z z p z @ z p z p z z @ z z @ 0 @ 0 @ I r.=X",
"6Xf.2.L T z *.I ~ ~ ~ ~ T ~ ~ T ~ ~ h h ~ ~ ~ ~ ..L @.h h 1.i.XX6Xf.2.0 T | *.h ~ ~ ~ ~ ~ ~ ~ ~ T ~ ~ h ~ ~ ~ ~  .I #.y h 2.i.XX",
"iX;Xk.0.w.t.5.7.5.4.4.4.4.4.5.4.4.4.4.4.5.4.4.4.9.3.e.a.y.j.>X(.iX;Xk.0.w.t.5.7.4.4.4.4.5.4.4.4.4.4.4.4.4.4.4.4.9.3.e.a.y.j.>X(.",
"K.).OXR.T.^.W.OX$X$X$X$X$X$X$X$X$X$X$X$X$X$X$X$X-XU.^.P.OXXX~.H.L.).@X!.R.^.E.OX$X$X$X$X$X$X$X$X$X$X$X$X$X$X$X$X-XU.^.P.OX%X~.H."
};
