/* XPM */
static char *_120085fcd8641f5c7aca9c9950a84cc[] = {
/* columns rows colors chars-per-pixel */
"64 64 177 2 ",
"   c black",
".  c #010000",
"X  c #000100",
"o  c #010100",
"O  c #010101",
"+  c #030000",
"@  c #020100",
"#  c #020001",
"$  c #010200",
"%  c #010300",
"&  c #000201",
"*  c #000002",
"=  c #000103",
"-  c #030102",
";  c #000302",
":  c #040000",
">  c #050000",
",  c #040100",
"<  c #060000",
"1  c #070000",
"2  c #060100",
"3  c #070101",
"4  c #050200",
"5  c #040301",
"6  c #000004",
"7  c #000104",
"8  c #010005",
"9  c #000105",
"0  c #000204",
"q  c #000205",
"w  c #000305",
"e  c #020204",
"r  c #020305",
"t  c #030305",
"y  c #000107",
"u  c #000306",
"i  c #000207",
"p  c #030207",
"a  c #020307",
"s  c #070304",
"d  c #090000",
"f  c #0B0200",
"g  c #080202",
"h  c #0E0000",
"j  c #0C0200",
"k  c #000009",
"l  c #000109",
"z  c #000208",
"x  c #000209",
"c  c #000309",
"v  c #00010B",
"b  c #00020B",
"n  c #000408",
"m  c #000509",
"M  c #030409",
"N  c #00040A",
"B  c #02070A",
"V  c #070508",
"C  c #05040A",
"Z  c #04050A",
"A  c #06050B",
"S  c #00020C",
"D  c #00030C",
"F  c #00030D",
"G  c #00040D",
"H  c #00040E",
"J  c #00050F",
"K  c #00060E",
"L  c #00060F",
"P  c #080609",
"I  c #000212",
"U  c #000511",
"Y  c #000710",
"T  c #000711",
"R  c #000612",
"E  c #000713",
"W  c #010713",
"Q  c #000714",
"!  c #000814",
"~  c #000818",
"^  c #000919",
"/  c #000B1D",
"(  c #173C66",
")  c #1F3B62",
"_  c #1A3C61",
"`  c #1A3C62",
"'  c #1B3D62",
"]  c #1B3D63",
"[  c #1F3D61",
"{  c #1A3B64",
"}  c #1A3D65",
"|  c #1B3E64",
" . c #1A3D67",
".. c #1C3E64",
"X. c #153E6A",
"o. c #163F6B",
"O. c #1B3E68",
"+. c #233D60",
"@. c #203C63",
"#. c #203E62",
"$. c #16416C",
"%. c #16416E",
"&. c #1B416E",
"*. c #1F416E",
"=. c #19446F",
"-. c #114172",
";. c #124273",
":. c #164271",
">. c #174173",
",. c #174372",
"<. c #164273",
"1. c #164174",
"2. c #154374",
"3. c #174374",
"4. c #1B4170",
"5. c #184272",
"6. c #184473",
"7. c #184376",
"8. c #134278",
"9. c #2F5D8E",
"0. c #2B5F9B",
"q. c #2C609C",
"w. c #1F61AB",
"e. c #1F64AF",
"r. c #1260B3",
"t. c #1E67B4",
"y. c #1F68B5",
"u. c #1E69BA",
"i. c #2663A6",
"p. c #2963A3",
"a. c #2864A0",
"s. c #2864A3",
"d. c #2062AC",
"f. c #2464AC",
"g. c #2864AC",
"h. c #2669AD",
"j. c #2568AE",
"k. c #2669AF",
"l. c #276AAE",
"z. c #3F6CA3",
"x. c #3F6EA6",
"c. c #386DAF",
"v. c #3E6EAE",
"b. c #3E70AF",
"n. c #2065B0",
"m. c #2466B0",
"M. c #2767B1",
"N. c #2665B2",
"B. c #2867B4",
"V. c #2268B0",
"C. c #2868B2",
"Z. c #2C6DB1",
"A. c #256CBA",
"S. c #276EBC",
"D. c #356EB3",
"F. c #386FB0",
"G. c #3B6EB0",
"H. c #3B6DB2",
"J. c #3A6EB7",
"K. c #3770B5",
"L. c #3970B1",
"P. c #3A71B2",
"I. c #3C71B3",
"U. c #3C74B1",
"Y. c #3E74B2",
"T. c #3F75B3",
"R. c #3271B8",
"E. c #3372B9",
"W. c #3472BB",
"Q. c #3573BC",
"!. c #3B76BC",
"~. c #3D76BD",
"^. c #406DA4",
"/. c #416EA7",
"(. c #4073B2",
"). c #4274B1",
"_. c #4274B3",
/* pixels */
"H.!.x.U.H.b.W.L.J.J.J.J.J.J.J.J.J.J.J.J.J.J.J.J.W.P.v.D.P.^._.B.H.~.x.U.L.b.Q.L.J.J.J.J.J.J.J.J.J.J.J.J.J.J.J.J.W.L.H.I.T.z._.B.",
"~.i.:.2.2.*.8.$.=.=.=.6.=.=.=.=.=.=.=.=.=.=.=.=.;.=.5.7.2.$.q.S.~.i.:.3.:.4.8.=.=.=.=.=.=.=.=.=.=.=.=.=.=.=.=.=.o.=.o.7.7.$.0.S.",
"/.5./ R R V R 7 B l B l B l n n l B B l 7 B l l L l C R R ~ [ s./.5./ R T V I 7 l B B l l l B l B l n n l B n l R B C Q R ~ ..p.",
"(.3.R 7 $ d 7 2 $ 7 $ 7 $ 7 7 $ 7 7 7 7 7 7 7 7 $ $ 2 2 $ R } j.(.5.R 7 $ d 7 2 7 7 $ 7 $ 7 7 7 7 7 7 $ 7 7 $ 7 7 2 $ $ $ L } m.",
"H.:.R $ $ 2 l $ 7 7 7 7 7 7 7 7 7 7 7 7 7 7 7 7 7 $ 2 $ $ F { d.c.7.R $ $ 2 l $ 7 7 7 7 7 7 7 7 7 7 7 7 7 7 7 7 7 $ 2 $ $ F { w.",
"v.*.P 2 2 h l 2 $ 2 $ 2 $ 2 2 $ 2 $ $ 2 $ 2 $ 2 $ d 2 2 d s +.f.v.*.P 2 2 h l 2 2 $ $ 2 $ 2 $ 2 2 $ 2 $ 2 $ 2 $ $ 2 2 2 d s +.g.",
"W.8.R 7 7 l I 7 7 7 7 7 7 7 7 7 7 7 7 7 7 7 7 7 l l F F 7 L O.u.W.8.R 7 7 l I 7 7 7 7 7 7 7 7 7 7 7 7 7 7 7 7 7 l l F F $ L o.u.",
"L.$.B $ $ $ 7 h $ 2 $ 2 $ $ 2 $ 2 $ 2 $ $ 2 $ $ d 2 $ $ $ 7 } m.L.X.B $ $ $ 7 h 2 $ 2 $ $ 2 $ $ $ 2 $ 2 $ 2 $ 2 d 2 $ $ $ n _ m.",
"J.=.B 7 l $ 7 $ $ $ $ $ $ $ $ $ $ $ $ $ $ $ $ $ $ $ $ $ $ l { m.J.=.B 7 7 2 l $ $ $ $ $ $ $ $ $ $ $ $ $ $ $ $ $ $ $ $ $ $ l _ N.",
"J.6.l 7 7 2 7 2 $ $ $ $ $ $ $ $ $ $ $ $ $ $ $ $ $ $ $ 7 $ B { m.J.=.B 7 7 $ 7 2 $ $ $ $ $ $ $ $ $ $ $ $ $ $ $ $ $ $ $ 7 $ F _ m.",
"J.=.l 7 7 2 7 $ $ $ $ $ $ $ $ $ $ $ $ $ $ $ $ $ $ $ $ $ $ l { j.J.=.l $ 7 2 7 2 $ $ $ $ $ $ $ $ $ $ $ $ $ $ $ $ $ $ $ $ $ B _ m.",
"J.=.B 7 7 $ 7 $ $ $ $ $ $ $ $ $ $ $ $ $ $ $ $ $ $ $ $ $ $ B } m.J.5.B 7 7 $ l $ $ $ $ $ $ $ $ $ $ $ $ $ $ $ $ $ $ $ $ 7 $ L _ m.",
"J.=.B $ 7 2 7 2 $ $ $ $ $ $ $ $ $ $ $ $ $ $ $ $ $ $ $ 7 $ l _ m.J.=.l 7 7 $ 7 2 $ $ $ $ $ $ $ $ $ $ $ $ $ $ $ $ $ $ $ 7 $ B { j.",
"J.=.B 7 7 $ l $ $ $ $ $ $ $ $ $ $ $ $ $ $ $ $ $ $ $ $ $ $ B _ m.J.=.B 7 7 2 7 $ $ $ $ $ $ $ $ $ $ $ $ $ $ $ $ $ $ $ $ $ $ l { n.",
"J.=.l 7 7 2 7 $ $ $ $ $ $ $ $ $ $ $ $ $ $ $ $ $ $ $ $ 7 $ l { m.J.=.B 7 7 $ l $ $ $ $ $ $ $ $ $ $ $ $ $ $ $ $ $ $ $ $ 7 $ l { f.",
"J.=.B 7 l 2 7 $ $ $ $ $ $ $ $ $ $ $ $ $ $ $ $ $ $ $ $ $ $ l { j.J.=.l $ 7 2 7 2 $ $ $ $ $ $ $ $ $ $ $ $ $ $ $ $ $ $ $ $ $ B _ N.",
"J.=.l 7 7 $ 7 $ $ $ $ $ $ $ $ $ $ $ $ $ $ $ $ $ $ $ $ $ $ F { j.J.=.B 7 7 $ 7 $ $ $ $ $ $ $ $ $ $ $ $ $ $ $ $ $ $ $ $ 7 $ B { m.",
"J.=.B 7 7 2 7 2 $ $ $ $ $ $ $ $ $ $ $ $ $ $ $ $ $ $ $ 7 $ l { m.J.=.l 7 l 2 7 2 $ $ $ $ $ $ $ $ $ $ $ $ $ $ $ $ $ $ $ $ $ l { m.",
"J.=.l 7 7 2 l $ $ $ $ $ $ $ $ $ $ $ $ $ $ $ $ $ $ $ $ $ $ B { m.J.=.l 7 7 2 7 $ $ $ $ $ $ $ $ $ $ $ $ $ $ $ $ $ $ $ $ 7 $ B { j.",
"J.=.B $ 7 $ 7 2 $ $ $ $ $ $ $ $ $ $ $ $ $ $ $ $ $ $ $ 7 $ l { j.J.=.B 7 7 $ l $ $ $ $ $ $ $ $ $ $ $ $ $ $ $ $ $ $ $ $ $ $ l { j.",
"J.=.B 7 7 $ 7 2 $ $ $ $ $ $ $ $ $ $ $ $ $ $ $ $ $ $ $ $ $ l } m.J.=.B 7 7 2 7 2 $ $ $ $ $ $ $ $ $ $ $ $ $ $ $ $ $ $ $ 7 $ B { j.",
"J.=.l 7 l 2 7 $ $ $ $ $ $ $ $ $ $ $ $ $ $ $ $ $ $ $ $ 7 $ B _ m.J.=.B 7 7 $ 7 $ $ $ $ $ $ $ $ $ $ $ $ $ $ $ $ $ $ $ $ $ $ l { n.",
"J.=.l 7 l 2 7 $ $ $ $ $ $ $ $ $ $ $ $ $ $ $ $ $ $ $ $ $ $ l _ m.J.=.l $ l 2 7 $ $ $ $ $ $ $ $ $ $ $ $ $ $ $ $ $ $ $ $ 7 $ l { f.",
"J.=.B 7 7 $ 7 2 $ $ $ $ $ $ $ $ $ $ $ $ $ $ $ $ $ $ $ $ $ L _ m.J.5.B 7 7 2 7 $ $ $ $ $ $ $ $ $ $ $ $ $ $ $ $ $ $ $ $ $ $ B _ N.",
"W.;.L $ 7 7 l d $ $ $ 7 $ $ $ $ $ 7 $ $ $ $ $ $ $ $ 7 l $ F ( y.R.;.R $ 7 7 l d $ $ $ 7 $ $ $ 7 $ 7 $ $ $ 7 $ $ 2 $ 7 l $ B ( t.",
"L.=.B 2 $ 2 l 2 $ $ $ $ $ $ $ $ $ $ $ $ $ $ $ $ $ 2 $ $ 2 7 +.N.H.=.A 2 $ 2 l 2 $ $ $ $ $ $ $ $ $ $ $ $ $ $ $ $ $ $ $ 7 2 7 +.N.",
"H.o.C 2 $ d F $ $ $ $ $ $ $ $ $ $ $ $ $ $ $ $ $ 7 $ 7 2 $ s [ i.v.o.A 2 2 2 F $ $ $ $ $ $ $ $ $ $ $ $ $ $ $ $ $ 7 $ 7 2 2 l ..f.",
"J.2.R $ $ 2 F $ 7 $ 7 7 7 7 7 $ 7 7 7 7 7 7 7 $ l $ $ $ $ B $.f.D.2.Q $ $ 2 F $ 7 7 $ 7 7 7 7 $ 7 7 $ 7 7 7 $ 7 7 $ $ $ $ F O.m.",
"(.6.! $ $ d 7 2 $ $ $ $ $ $ $ $ $ $ $ $ $ $ $ $ $ 2 2 $ $ F $.h.T.6.Q $ $ 2 7 2 $ $ $ $ $ $ $ $ $ $ $ $ $ $ $ $ ; 2 2 $ $ F } j.",
"/.$.~ L F s F $ l l B l l l B l l l l B l l B l B 7 l L F Q _ q./.$.~ L F s F $ l B l l l l l B l l l l l B l l B 7 7 L F Q $.q.",
"(.0...} { +.X._ } _ } _ } _ } _ _ _ } _ } _ } _ ( [ ) O.} _ q.Z.(.0.} } { +.o.{ .._ _ } _ } _ } [ $.} _ } [ _ _ ( [ [ O.$._ 9.Z.",
"N.A.p.j.d.g.u.m.N.j.N.j.N.j.N.j.N.m.m.m.N.j.N.j.t.N.f.m.j.q.Z.r.N.A.p.j.w.g.u.m.m.m.m.m.f.N.j.N.f.m.f.N.m.m.m.N.y.N.i.f.h.q.Z.r.",
"H.!./.P.c.(.Q.L.J.J.J.J.J.J.J.J.J.J.J.J.J.J.J.J.W.H.H.J.P.x._.B.H.!./.U.H.b.Q.L.J.J.J.J.J.J.J.J.J.J.J.J.J.J.J.J.W.L.H.I.T.z._.B.",
"~.i.:.2.:.*.8.o.=.=.=.=.=.=.=.=.=.=.=.=.=.=.=.=.;.=.=.7.5.$.q.S.~.i.:.2.:.*.8.$.=.=.=.=.=.=.=.=.=.=.=.=.=.=.=.=.o.=.o.7.7.$.0.S.",
"/.5./ R R V R l l n l B l n l B l n l B l n l B L s C Q R ~ ..s./.5./ R T P R 7 l n B l n l B l B l n n l B n l R B C Q R ~ ..p.",
"(.:.Q 7 $ 2 7 2 7 $ 7 7 7 $ 7 7 7 $ 7 7 7 $ 7 7 $ $ 2 $ $ L ..f.(.2.R 7 $ 2 7 2 7 7 7 7 $ 7 7 7 7 7 7 $ 7 7 $ 7 7 2 $ $ $ L } m.",
"H.:.R $ $ 2 7 $ 7 7 7 7 7 7 7 7 7 7 7 7 7 7 7 7 7 $ $ $ $ F { d.c.7.R $ $ 2 l $ 7 7 7 7 7 7 7 7 7 7 7 7 7 7 7 7 7 $ 2 $ $ F { w.",
"v.*.P 2 2 h l 2 $ 2 2 $ $ 2 $ 2 $ 2 2 $ 2 $ $ 2 $ 2 d 2 d s +.g.v.*.P 2 2 h l 2 2 $ $ 2 $ 2 $ 2 2 $ 2 $ 2 $ 2 $ $ 2 2 2 d s +.g.",
"W.8.R 7 l l I 7 7 7 7 7 7 7 7 7 7 7 7 7 7 7 7 7 l l F F 7 F $.u.W.8.R 7 7 l I 7 7 7 7 7 7 7 7 7 7 7 7 7 7 7 7 7 l l F F $ L o.u.",
"L.$.B $ $ 2 7 h $ $ 2 $ $ 2 $ $ $ $ 2 $ $ 2 $ 2 d 2 $ $ $ n _ V.L.X.B $ $ $ 7 h 2 $ 2 $ $ 2 $ $ $ 2 $ 2 $ 2 $ 2 d 2 $ $ $ n _ m.",
"J.=.l 7 7 $ 7 $ $ $ $ $ $ $ $ $ $ $ $ $ $ $ $ $ $ $ $ $ $ F _ m.J.=.n $ l 2 7 $ $ $ $ $ $ $ $ $ $ $ $ $ $ $ $ $ $ $ $ $ $ l _ N.",
"J.=.B 7 7 2 7 2 $ $ $ $ $ $ $ $ $ $ $ $ $ $ $ $ $ $ $ 7 $ l _ m.J.6.B 7 7 $ 7 2 $ $ $ $ $ $ $ $ $ $ $ $ $ $ $ $ $ $ $ 7 $ F _ m.",
"J.=.B 7 7 2 l $ $ $ $ $ $ $ $ $ $ $ $ $ $ $ $ $ $ $ $ $ $ L { N.J.=.l 7 7 2 l 2 $ $ $ $ $ $ $ $ $ $ $ $ $ $ $ $ $ $ $ $ $ B _ m.",
"J.=.B $ 7 $ 7 2 $ $ $ $ $ $ $ $ $ $ $ $ $ $ $ $ $ $ $ 7 $ l _ f.J.=.B 7 7 $ 7 $ $ $ $ $ $ $ $ $ $ $ $ $ $ $ $ $ $ $ $ 7 $ L _ m.",
"J.=.B 7 7 $ 7 2 $ $ $ $ $ $ $ $ $ $ $ $ $ $ $ $ $ $ $ $ $ B { n.J.=.l 7 7 $ 7 2 $ $ $ $ $ $ $ $ $ $ $ $ $ $ $ $ $ $ $ 7 $ B { j.",
"J.=.l 7 l 2 7 $ $ $ $ $ $ $ $ $ $ $ $ $ $ $ $ $ $ $ $ 7 $ l { j.J.=.B 7 7 2 7 $ $ $ $ $ $ $ $ $ $ $ $ $ $ $ $ $ $ $ $ $ $ l { n.",
"J.=.l 7 l 2 7 $ $ $ $ $ $ $ $ $ $ $ $ $ $ $ $ $ $ $ $ $ $ l { j.J.=.l 7 7 $ 7 $ $ $ $ $ $ $ $ $ $ $ $ $ $ $ $ $ $ $ $ 7 $ l { f.",
"J.=.B 7 7 $ 7 2 $ $ $ $ $ $ $ $ $ $ $ $ $ $ $ $ $ $ $ $ $ B { m.J.=.B $ l 2 7 2 $ $ $ $ $ $ $ $ $ $ $ $ $ $ $ $ $ $ $ $ $ B _ N.",
"J.=.B 7 7 2 7 $ $ $ $ $ $ $ $ $ $ $ $ $ $ $ $ $ $ $ $ 7 $ l } m.J.=.B 7 7 $ 7 $ $ $ $ $ $ $ $ $ $ $ $ $ $ $ $ $ $ $ $ 7 $ B { m.",
"J.=.B 7 7 $ l 2 $ $ $ $ $ $ $ $ $ $ $ $ $ $ $ $ $ $ $ $ $ B { j.J.=.l 7 l 2 7 2 $ $ $ $ $ $ $ $ $ $ $ $ $ $ $ $ $ $ $ $ $ l { m.",
"J.=.l $ 7 2 7 2 $ $ $ $ $ $ $ $ $ $ $ $ $ $ $ $ $ $ $ 7 $ l } m.J.=.l 7 7 2 7 $ $ $ $ $ $ $ $ $ $ $ $ $ $ $ $ $ $ $ $ 7 $ B { j.",
"J.5.B 7 l $ 7 $ $ $ $ $ $ $ $ $ $ $ $ $ $ $ $ $ $ $ $ $ $ B _ m.J.=.B 7 7 $ l $ $ $ $ $ $ $ $ $ $ $ $ $ $ $ $ $ $ $ $ $ $ l { j.",
"J.=.l 7 7 $ 7 2 $ $ $ $ $ $ $ $ $ $ $ $ $ $ $ $ $ $ $ $ $ F _ m.J.=.B 7 7 2 7 2 $ $ $ $ $ $ $ $ $ $ $ $ $ $ $ $ $ $ $ 7 $ B { j.",
"J.=.B 7 7 2 7 $ $ $ $ $ $ $ $ $ $ $ $ $ $ $ $ $ $ $ $ 7 $ l _ j.J.=.B 7 7 $ 7 $ $ $ $ $ $ $ $ $ $ $ $ $ $ $ $ $ $ $ $ $ $ l { n.",
"J.=.B 7 7 $ 7 $ $ $ $ $ $ $ $ $ $ $ $ $ $ $ $ $ $ $ $ $ $ L { N.J.=.l $ l 2 7 $ $ $ $ $ $ $ $ $ $ $ $ $ $ $ $ $ $ $ $ 7 $ l { f.",
"J.=.l $ 7 2 l 2 $ $ $ $ $ $ $ $ $ $ $ $ $ $ $ $ $ $ $ 7 $ l _ f.J.5.B 7 7 2 7 $ $ $ $ $ $ $ $ $ $ $ $ $ $ $ $ $ $ $ $ $ $ B _ N.",
"W.o.R $ 7 $ l d $ $ $ $ 7 $ $ $ $ 7 $ $ $ 7 $ $ 7 $ 7 7 $ B } t.R.;.R $ 7 7 l d $ $ $ 7 $ $ $ 7 $ 7 $ $ $ 7 $ $ 2 $ 7 l $ B ( t.",
"J.=.V $ $ 2 l 2 $ $ $ $ $ $ $ $ $ $ $ $ $ $ $ $ $ 2 2 7 $ s ..C.H.=.A 2 $ 2 l 2 $ $ $ $ $ $ $ $ $ $ $ $ $ $ $ $ $ $ $ 7 2 7 +.N.",
"H.5.C 2 2 s F $ $ $ $ $ $ $ $ $ $ $ $ $ $ $ $ $ 7 $ $ $ 2 l +.d.v.o.A 2 2 2 F $ $ $ $ $ $ $ $ $ $ $ $ $ $ $ $ $ 7 $ 7 2 2 l ..f.",
"D.:.Q $ $ 2 F $ 7 7 7 $ 7 7 7 7 $ 7 7 $ 7 $ 7 7 7 $ $ $ $ L } t.D.2.Q $ $ 2 F $ 7 7 $ 7 7 7 7 $ 7 7 $ 7 7 7 $ 7 7 $ $ $ $ F O.m.",
"U.7.T $ 2 2 7 2 $ $ $ $ $ $ $ $ $ $ $ $ $ $ $ $ $ 2 2 $ $ F _ j.T.6.Q $ $ 2 7 2 $ $ $ $ $ $ $ $ $ $ $ $ $ $ $ $ ; 2 2 $ $ F } j.",
"/.$.~ I F s F $ l l l B l l l l B 7 l l l l l l L 7 7 L L ! [ a./.$.~ L F s F $ l B l l l l l B l l l l l B l l B 7 7 L F Q $.q.",
"(.0...} { +.$._ _ } _ } } _ } _ $.[ _ } _ } } } ( +.@.O._ _ 9.Z.(.0.} } { +.o.{ .._ _ } _ } _ } [ $.} _ } [ _ _ ( [ [ O.$._ 9.Z.",
"N.A.s.j.d.f.u.V.f.N.m.m.m.j.N.N.m.m.m.m.f.N.m.m.t.M.d.m.h.s.Z.r.N.A.p.j.w.g.u.m.m.m.m.m.f.N.j.N.f.m.f.N.m.m.m.N.y.N.i.f.h.q.Z.r."
};
